<mxfile host="drawio-plugin" modified="2021-10-19T20:55:20.044Z" agent="5.0 (X11; Linux x86_64) AppleWebKit/537.36 (KHTML, like Gecko) Chrome/87.0.4280.141 Safari/537.36" etag="U4F2gUEf2MLWDkdf0CFn" version="14.7.4" type="embed"><diagram id="YVFh848lxzhuFXLGD3Jf" name="Page-1"><mxGraphModel dx="1707" dy="518" grid="1" gridSize="10" guides="1" tooltips="1" connect="1" arrows="1" fold="1" page="1" pageScale="1" pageWidth="850" pageHeight="1100" math="0" shadow="0"><root><mxCell id="0"/><mxCell id="1" parent="0"/><mxCell id="2" value="" style="shape=image;verticalLabelPosition=bottom;labelBackgroundColor=#ffffff;verticalAlign=top;aspect=fixed;imageAspect=0;image=data:image/png,iVBORw0KGgoAAAANSUhEUgAAA6kAAAETCAIAAABbc9feAAAgAElEQVR4AeydZ3PiTJTv9ytt3fvm3tpdbM8zFhLZEQcccACDxznngLMB2+Ns4xwIJgelV3urbt3vsO/2m9xqCbAESMZhHMbHRc0IJLVO/7rF+ffR6eZfygkNvIAAEAACQAAIAAEgAASAwHcg8C/foZJQRyAABIAAEAACQAAIAAEgUE5oQPtC2BsIAAEgAAT+LIFqYwO8PpwAiB4gAAR4AqB9/+w3PvQzIAAEgAAQ+HDZBwZUGxugHwIBIMATAO0L2hcIAAEgAAT+LAGQnp+BAOgeIAAEPpn21TW02AeHJvvq1X/2Kzjd8G9/ucrajp6+sUlrvfZL9q0igahqm/snph3LfSbdl6wmzOwEAkDgIwgIlV9vd9Wx++exu5x/7bqUhsEG5XKDcrlRudxILJs6O3rHLMsT1lX+1djQJjz9hdv1XaOrG/P97TUy2RfFHCNz+p/d1dTUaW9rbnxh9TnbvtSX9hd3qR9xl32p9n0XpSfdCp8l7qtsXw8wLEse9ujkiGDa6uqm1mq93DHFNP/bX07zyxVnWCbmsumLMeCzHVMkkPIvXs3Phh3sAQLfhIBQsa3Mqf/7//2r8JW4/g/9aOO/xRr/LYFeZWeN7W29p6OR8/Hk+Xjy99D9G8jf+o6+2YUxe6vQktztYo4RCVxTS8+UY93ldm04Jvta6v9kTnO9fcLpmrabcm0W2fOEAR/W2XSdsxeRZPh8xmwo1oZv6GteQClP272VRiq2mfIM+ConPq19cZWmuV5rN2ub67W46rWiU4pLUdpLP7hPsiwdWDK/Nuj49pf74jdqUUAIDWhfqQ4MnwMBICBDQKjY8rXvf/+/f30P+fscmSg0WGq7pnVo0bkyZu8wtfVOrrnmemWF9Suv/pW1L1Y/e0mzLEtdTjdiRaqlr+FS9dVds06PN5KkKDIWuNqf727Ai6xg3mEvoZRTyNtpJJl7+e/Y9YT2rarSbIzoDmf0/GtjRFdV9Ufkb1HayzB88J7a91mX+xo3qmTbFcUftG/OFw28BQJAoDgCQvmY1b7h85Jue1XMq+BjwInr/6hpbiCcTdnob21T02in4+nob73ZOjK3vOFyOdcd08MdTXxiQKt1dM6xuul0u50bC71my/Cqa74vI0/rzJbh2aV1l9vt2lxfWZjub6lrqK4THFNntk8sLq+h093OjaXpobbG3KhqjXVqY2Oyo66h2thsn3U5BvMSKkSFrC2MD/wanllc23S5nGuLE7YW3s7G1oGF1U1kycbK/LCtlcvKaDb3zzjWnejD1flec2M10r5b6T/3Yk8TZ0x9W9fo/NK6E1V8asCctlBc8dbHNImPUy3VTSPLq47RpgpJH5Rr21dwqUTHuh9pepYhkylugyVvZ0wvznt8PqWcu+9ZoiXn3G/2Vk774iqR8M3K39zorwi3tmb6ikLju5kalaZc3TK8c34TiCRImqZSEe+Za7qrIpvRq2sZ2DjzxUiajPt9oRSbzXnQmxfO7kLxFDop5r/YmeyoQYNF/kKop6E/5mG9lS9KVWOe3PL4YyRFxh6utmdtj5cQNufbXE7CNv5GZamw1xtOUmQidPl71lzJ3wMSpxC6iq7F3ZtQgqLJRPTh9mCEv2eKqY66ZWjbc+0Px0maoVPhu0PH9ILT44uSFBkPXmxPNRsyXzGqmtZx96kvmqKo+MP174WeGk1mlyQQTbmUDV/h+yj3O1TYB2AbCACBjyBQUPuODeurjQ0Tq7ps/kPi+j/qWpqEyQ/Vpsankh+aOsZXXRsLw79sHV39Y45N19JIaz0vZN0rk32dndZ2q7WpQaBrjU0dY6uuTcdoj729s8s6uuRyTlvSp2T0MdLB7uWJ3s7Ors7ukdl19/qk3ZgTuzX1zmyuT9haG63jS+sLPWktK5DIfCHjPR2d1s6eyWXXlnNpssfW1W7tn1hxOed6G7gC69vtVovF3GHrnlh2bs7aGhtq2kdXXKuTvV2tbZ3tNntrYwOnfV1z/Z3N5vbmVnMdEtxNneNrzpXpHqvFbB2YWnWtT9iQhdxFHysuyMQQfzdWmYY3ju7CSYqmEqFr92AV/1xX0mUUclhFeiKh41C3DG15rn2hSDzFXfl2d6G7MqsKsp1TxqXKSA50eqF6yZyiauxe2j29DUaROcmId6e3unjxWtu15J7pbtKoNMqaod0Yw7LU6ZhRzBkJoaL8dZGUZOrybI1UqE2zTYA2pNSLplxV2zbpPvVGUf9JxUO+m+P1gae6UEZ7iC7xMR/Kad+mem024ivcaMqZziXTEunuy1KJaDjKj4vogOuXDtW89tfvCIM0LBWPxpLpMROf76trWfUnY+GAPxBKoB1MbO9XRVb7UvGg3+f3ez3zJnTDVLQu3SHdTMUffME4hRT07WJb3nOHt7qchG2ZmrI0GYvEU6hibOJsshZ9m0icUjVykGBZlo4Hbq9u/JH4ySCKqRdXnczlqEQ0wtWZGw5QiVgCAWCZ4KZNhSCj0kj0CZ2MJ0hkFR363W9AVskAkbZBeHN+gu6b+xUDJgEBIPApCQi17/yklhe7/yf8v9fmVf83/r+y2vclyQ+m3lmnc+ZXS/oSzQMLrs1Jm0kUxE0rwoyuNfXOOJ2zPekYcK1tRkL7Zo43Npj6Ha71iXakOIWvpvaxVRQXXp391dYk3sUdJgwkc7HhzUl7La93e+Zdm5OdOQU29s661kc7G1FE2bXYK5zZlp/zYOqbda6PdqYzgOu655wbk505Cl5krXCNM4Np/jqZcRvRBBnd7nnCZRR0WEV6IqHjyJ6SjIajvOdPnU+acnMhMocVcKkykoOQqJfMKZkLMWQiGk+SEXdnNjz0rFupom8niub8uLsrch1T5hJP+Gv+MH7WUPaUfEoydeF3sUVrpIJtKqq1hHohqtrXfUhs0InA7fVtMMmwLO1bacpIMgnV8TEyN7c5uArKaV9762O2g1D72lvF6bYyLSFsS8JgHD+JonHR9XSDFqubPqdYlgn/7q9TEhrC4gwK57qptOUqg7a6vto0vBNmWCayYdWn4745+b7VY8cplqW9jjbU4TRdrgeGZcKudnH3fbPLEZrygralaxrf/lVRTmj1Nrcf9QXvQgvHqtApyualO5pl6esZEzc9Tq1DN39x1RHl3WrbF+9plmX8q504YWha8qJS/avNalTaUQoNHY7GTDihNXRvoQmFtHe+WScHRMYGUYN+on5csHPDh0AACHwSAjm68GL3H6Hezdl+Vu5vTefEmsvR25yRpHUdQyuu5aGOGpHuFOUz1HSOr7kcfZkwbTHat9Y27XTNWAUx1Gpjc8fo8sbK7ODI3LpzecTaUm1sbBuaE02nE9nQ2DGx4ZrtreP0aG3XtNM124UKNDV3j88ura1vOjfWNpzujTFLY3V9Z//ipntzeXqkr72JU7d52hdV3L3ldrld/Mvt3nLN2xtFNc3B/tgZqkYOkfJNns+3a1EoRK/Wca5K2mUUdlhCjyDjiYSHCbeJqq6tMBIF55OVfNQ5K7zShxVyqTKSQ6peMqeI7NEotXpl1obiN7Qtw4dIqSQuZuqkYti8qH09JZm6iHZlHLS0Qy/cpjm1LqResNpJD4mkxf5QHUZotEPHVFb7Snehx+6Xc4mPeCunfd8s7ptd/UD7y4UeCpB7/RW4fSeObr29bi1qIVG+qcpocZz60UAi+5fc/lVY++K2LVRkzh91OliZaXgO61tdrlzKNvH9U66xbaCgNrU/UCl5irZjkY/JUrHbw/Wh9loloSmyOiLtS+i7dpKoG7q7cUKD//rNvdmyaDS4bRvBSe3/4lfPUHeuPCCrjkdqZIDI2ZBTzY/osp/q/gFjgAAQKIZAjgirNja8lfwtrH2H5bXvxLpALhelfbumNsXal0tLWB4wNyLx2svJ367u0dW10c7H/Fpx7LmxfWzdNddbz2lfLrKLtG9N28iya2N2sLvN3N7SObzg4rQvClQ3t9iGJhybbufycGcTynnYFK3zUNM5se5aHra2N7W2pV8trcacrGWJuG/6Sz510CNeNEnGZZQXclhFeiLRYWInYhj1INnkXeae4gq8tvgwkUsVKTxRmqVUvcSBM9EpItte5tEqLHPnyNMmbzcsVYXyJUR1kfTXIktEp2hElKSrL65mGqacQy/YpkIIEoIHt4ukhVD7ynUhYckfvS2nfYvN99Vxyy8wobUOXTkh26sEihBpLyTLDnu5e0+ofdXd3KOD5K1reqRnYH4/hDrVzi99uX4IzXVjAsttj4HntIaj/fsry4uOzGtxxCReK+2tLidpm7inlgtUvuQphAaraOt37F2FuTwFOuTuyUjSp6ojukkIvcWNbrz41i+kfTm9y8S3rQW0r2VVqH0l+MshzanmR3ffYpwuHAMEgMCHE8jXvvLy97/+83/+6q0svUmvevbvsUZ9n2mz/4yf93Y2nuhrn0qXaeqbdTmnu5vTb5sHUDKBrUmsO8XRUC4vYsqePuVl2rfWNuN0ZiPBnPx1u11LQ83CNAZx3Leg9q3rnnNtTqWTH+q7p7Lal5etdeaeBVS92rqusQ3XXG8mtcPYUN3UP+dyzvYIPkmfIsxszoTDuV3ZbpBxiAfpsEjmmzxPuDy6jPJCDqtITyQ6TOxEhLIpax7aEB8mdKnl0pJDql4yp+ReKINCZIzMh5W25VsUboqeLbRKzeQT1UXSX4ssEZ0iDqxKV/8FGilfhAgrLqVe0iIhtf+Li10KG1G+CwkL/9htOe1bTmiKWudB07XOPbW4nG3GC2vf+NYvQzmh1XW50KRILhMgHTNnk56ZVrUo7qutnrpEA8GbeaNKU65qmUOZAZz21fS4Uaw4dTRiROkBap2S0GDGqTMkiOOeuU4d96xBaWioTk8yexxEvtHlZGwTru+rrx075rI7bqYbdZLVUVdXVHHZDpqG4WP0/Cm+3UMUVx3RTSKtfctruISQTM6D3u7mcx4WWnTSQGSRauxOrmKn4+hJx8f2Xbg6EAACX4VAQe0rJX//6z//59CwofT8UfhqhxtXeo+ywneoc15QYFPH+Jp7Y2Gou6vd2jfq2HQtj5rz015FMrTVPrPpXp8ftHe1W3v6Z9fchee6Peb71ubFfaub+mY3NxeGu0wNJmNTh3Vofm3T6dxc6DULluAVXVQi7ts+tuJeR3Hfto6WjqF5TvvWtHb3/LK1tXW0WvomVtzr4101xtZf8y6nY9xu6ers7mlH6zw0WyfX3ZuO0d5uNJfO3m/v4NS86KKFtW/Wb55MtajRN7lWbahEz/qlXUZ5IYeFiyTaq1Wd0KeISxa4VG25tOSQrJf0KWJn+lynVtuzxyX5ns02isNtohtTXBepWJXIEtEpYu0rV5dnaqSCbfrYCpKCB6ub4XJWY4fjLRptVeMcWuEgne8r04UeS34u57c//gntW05ocJVm0IImvQ1apNb3rejYRMm6aLpZOD2lLb3OA99+3FSrSDjKZTEwCc8kWgKCqOrY8PMBz2Q0HI5zE7G437YgOjdRdJIlw3fnJ6dXATSRjdO+RG3fQQLtoZORUDge2+PGrFWdmwGuHJZOomlmFENdFFhE8G0uJ2lbuqYMGY+E0vn79MNWj57QSJ2iNK/6aTIW9N/dBaIoM5y6nW/BiOKqI7oxpL9xiArzilecdc6E9wYrZPmXy9igahi/4BstdjAM8vftb0jRN+Zn+qYAw4DAawgIpKpIjeXL32cKX640bqmvlQ30GxNLMyOd/BpnORIw522jpW/Ksbrpcm2uLjjW3JtTubPExMcX0L7GhobOoSnHutPldm2uLU4PW1pa2kdXnLzyLhCCLax9q43N5v5pbjkzt8u5ubYy39fWaOwcWVjbdLm33M51x8xwhwlV09jWP7W84XK7nWuL/e1cZgWq+NwyWqnNvbm2NNFtRpzFlgvJC1qw2uLk/SZDJZDfJNNZB5Iuo7DDKtITCQ8Tbuekigq/8fjD2AIutZyQlhyEZL2eUCnZzEyhDU9tY7WTZ8gfMsnIQyCQfnl3hgw5J4qqLO2vhYcJt3MpyVT/eRqpcJsKjJdSL+VEjX07xK9QkE04zc51k1Ydn8hjPq19ywlNWyPSvm2NhRJZeEz61sFNjzeaohmaSsYe7q8OHN1oMYd096XCPl84SVGJ0NXvGXM2E1dtbJ/e9viiSYqhyWTk4f58f6YZzVGrbBpze3yxJM2wDJWMhe4uDsa5CXZYTff84X0EXScZud/uqeFMUhvbprZO0fLS6PJh35V7uKlAVPJtLidhG7ea220gmuAWHYv6L7Zm7VXpnPfCpxDt80e3IbRIGUMlQneHq4N13OOD8mKqI7oxpO8lNDOvtm165zwQJ9E6Nrf7S/21/FVQ4FyKP9olhZQwDa+fBWKpqMv+JX/BTvDt/4nuQ7AKCPzdBIQKLH87m/uLhG9/hXq48d/iKOj777FGzXBDZ3PP2Xj8fDx5Np4QR3xzZXR+ycV80tC74FodMwtzFXjl+tf9K+pj6rqOmYz/TUa9nvkWfoK4hMso7LCK9ETCw4TbuapO8J0s51I15VKSA/k1iXpJnSK2R4RIoAILfq5sXUFTy8V/1NkkF10S1EV0CWl/LTxMuJ1PSaouhOZZGqlwm4pqXVi9IBqa+s5p5+7pxbnncPs0gJ7o3zkaeM0j0YUKMvyoD99I+4pgSTW54HOp4+FzIAAEgAAQ+OsIPKlBL3b/+a///B9D/RX8kcRsAy98+be/zKNn4/G3E76mVnu/ravL3NbZbh+eWXOtjFr5pceetPNLH/BROgOu+/cR0NQ26jODJfs2NyvrcEj7db64QPuCIgcCQAAIAIE/S6AYyWixVAsPq2gXhXWbTZ3Cva/bbu0ad6xsOFH+wPry7GhPs2jxMtF1X3ehz1XU36fAoEYfRKBm4JhkyEQ4GAzFKS4TNeS0VX2QMS/57gLt+xJqX6iBwVQgAASAwIcT+JsU5Nety4d3AzDgLyGgaux1nt8FY0mS+/Hdq/2FHhPxdYK+5YTmD2vfL8XiL+mUwBwIAAEg8MkIfF29+DdZDj4OCAABngBoX4j7AgEgAASAABAAAkAACHwXAqB9v0tLw2gPCAABIAAEgAAQAAJAALQvaF8gAASAABAAAkAACACB70LgXxQY/uSrzqg6nNHXGVVPHgkHAAEgAASAABAAAkAACACBT0ugKO3bVK8+nNE31as/bTXAMCAABIAAEAACQAAIAAEg8CQB0L5Ph72fhAgHAAEgAASAABAAAkAACHwJAqB9QfsCASAABIAAEAACQAAIfBcCoH2/S0t/iaEYGAkEgAAQAAJAAAgAgT9KALQvaF8gAASAABAAAkAACACB70LgHbWvura+q69vvKcKz4MruUtvaLPbR8baaok/OgJIFy5pRp7BRSyO8R4GgxlAAAgAASAABP5CAu/r/f9CgKBb5Ai8n/YtbV31MyxL7tvUuQZJ7iJsmzGGZWIb1vdYYkLSDLgrgAAQAAJAAAgAgZcRUJsnzyOJ8NlEi6bYqND7ev9irXpZ9V9/1gsA5l20RGXQNTTpNLkC7LPXPa8ib2Lw09q3TIn3daA1zvo61GXKl1OTUZaSu96390ua8WfQv0n7QSFAAAgAASAABD4zgRLj9AXNsix1PllXUqQ/fV/v/zp6BGGe3g/SLHXco8vTSMqqtk0vybJsYrudyNtbHI2XAMwpWdO/m2JZ2r/QAj/UgFrhCe2rMxDrI7rDGT3/Wh/R6QwvTD+QUZaSu96390uakdOH4C0QAAJAAAgAASBQLAFD3ZBjaXHImC8NpUp4X+//Yu37T41lyHkVQcqeLaR9tfXzV0lu52u0rwJ7PsAcsNqBPRK07+PYQ077lilxofDNyt+86K/GNOe5DcZTNE2lYr7z7dG2ivTYTm36te7xRkmajPu8oRQryHmQ2ZVtM773s1TI6w0lSTIRvNiZMmXFt7KiYcx57I2mKDL+cLU1b9enB1US9ijrLI6d49uHaIqiqWTYu22rIBTFmJG1BzaAABAAAkAACPwNBPS1Q2sHd+EERVOJ0KWrX8s/15V0rCq1ZX7nOhSnaDIRDdzuDTQQCtzUt3V65QvHSZqhU6Hbg/nJuXWPL8J55bOtiXotpzaEQhY39blPL73BcBx54kTwZmeuS5M/C0jG+4tkHKGfvKJYlrqY0qefSxeql8wpBYVBke2rNA6fo5AuTZJUIe1L2LcCNEslk5Jx37cFKFNNfhevwlmWeVht5JkrKxvH3Sf+GEmRsYdL97RFnW6LQs0twiIhtDBcoaxqGncdeyNJiqZS8aDv+nCt96ne9ahKXzwOedaJctqX/ynjbNA3u5H348aqhmV/Ihby+/3BBBr+MLFdKxreVVp3wgx6T8ajsSQ/MErn+8rsEiBI937Us2KReAqVxSY841wX1zY47lB/YulkLEGiXXRwp1eFer+EPZnSeHPIiKuVKM4MUXsLzIPPgQAQAAJAAAh8PQIa42w6HkklopEEGdmy/4NqIe1YDYN7CeRnY4GbixtfOHbca8AVGa9KJaLhOJJ/3B8Vjya4N8zDhgUVyx/GT93JnpKMhqK8Lkh5xvNyITKHFfD+MgoPk6iXzCmZCwmEwTO8PGGbW5ywV3cs3dO5cd+S6qH9KMPEPWPDG2iyU8Gch8zV3wagTDXT2peKBf1en//+dLYWaVzU3CgoScUDvocYajPyer6lDMMVBZtb1M8lhBamb17zoZLohP/m6jqYZFiW9i4ZM5eTkG3PYP4sjSt1sJz2tTSjNN/8l6U5b+aZklAoNVhFja5hwB1mWCay2qkuqZk8o1iWCW/1Vpdi+I+OjYfMXDeZXSJD+W7BxN12rQIjcKvThyjez5pUioqRgxRS2Qcj9WUYQdhcqG/R9zONXC5LIXtEtx+Gl6o0ZdIWiswQtfd7txBYAgSAABAAAkDgLQkYBvfRk/ikZ7YVQwEj9U815zqlHWtp4+ItzbL01UQDN18NV6Gnu2kfzc1HV7XOIQHI+FbayjBNnQO9of3Ldbj4MOEpmKEdKQaWOhvXpKO2GQ8r4/1lFJ5UvWROEdmDhEHp8z1+aRNXW2G+r7Km5zDGMJHf/TVl/ER/Ge3LjwpeD1CmmqJdGcgVI4coCfh+vkWrwPByizPAsEx4s5nACzd3DplCQqukauyE5CKgAzUlGI4NHFFZ7Svdu96yb+cYKfFWTvsWG/dVVpkXj31I3Gf/km67uqxrK4Zurl2LCoEWZtPK7BIhEHdKBWFZjSD5vNunK7O6owzLpvas/KoReJsDKWvqcKhCIWGP6C7lcBRrhgQ7kalwDBAAAkAACACBr0Ag40D3beJZ/5nPCzlWlXmWf9RKRW8OVvtaq5BGFPlodft2gmWZqKurDMPLbDvcG7eZEB8mOgUnhk+RNrp3cGHIjCbLLRkXen+FSMaJch4y9ufWS+YUcRUEBjynHfO1L969E2KY+NGwRpkRP09qX+zVAKXJiAmkq5nGlRVu/AZ1giL6BZtbyERCaCFZJdBmQu2baZ1CvUtY8rtsy2nfIvN9f9q2IwzLJG82JgdtfbO7IYZlM9oXIUj3wlztK7FLJCjFN4lCxS15xpK/e7VZiF1p7du+lNG+Uvbkd/FMIxWwUGTGu7QEXBEIAAEgAASAwDsQyPi+vbQDzfg4GceqwPASfUv34u5FmH9qHXJ2V4i9qtrsQrIn5rYj7cvFp5jYVpus9hVqI1HFpb2/Qt2/iyKLweU2lQITa9+M8Mqpl8wp4iq8lfbV2Q84Srmy0jNQKb6EqJqvBihNRqHh5roxgUXBOg/p8B/t3112zC5mXvODRk5WFWjuTD9RYLiU0Crr2o6zj3FJYfvK9y5R6wsu9Ic+l9O+CgwvYp0HQjdxgcZt17MVSlyhNE2h5yJI+5ZUj6PQN5s4mWr6KY77yuwS1VPULTSGkSMU9qWux+sIRSUXq8/mPHRlch5Mail78rt4sWb8+WYQ1RouBwSAABAAAkDgjxEoqZ44RfIxfjRh+omuQvzU6lAcV9KxqhS4QW3gsh2I2v4jlPkb37KXiXz0q6WbsL6iksXen7CscIkSFzMNZWLtK1kv6VPyhcEL3HFe3FfXvnZ9c3eXfvm5TFomHrhxWvV/UvvKVdPu5DTpwVA1SlbBVaUYnsV1MmPGuSlupVqjTs+t5VWwuR8bSFr41Uxxya6x/TFTuUpfM3v5mPMg07seSxbz+WOfP6F9FRj+5Pq+P9rXAyjfgQzdnh2dXPlR4jTSvgpM37Lm5xLe6WQ0FIpxE9LSc91kdglqzvd+NFcuHEwnxdMBlx1HOLSNS/fipGkmtNuvVuKS9ojuJf4qxZnxx+i/4B6DU4AAEAACQAAIvI6AwbwZ4Kejoblu8RTpdfCzkaQca2nLso8mow++2zt/BLle6nrOVCLyqn9A+0p4/5aNIJdkScbCoUiKWzo4vc6DZL0kTxFVQSA/nuP387SvqJz0Q+8ich5eHTjXSlYTq+zej3OLAiTDwXA8tsvlixpaN3iRhhYNiMRSFJNeg7lwcwuYSAotrLJzK8gvbZCNemfnukn1rtd1ZhHtIot6WvsqMLypHk16a6rPm+KWBqE3jrhOfNEkzbAMlYwGb8/3hpu4xHm8unly6wQtdcHQZDLycOfZm6rjVyKT2ZXli5v6t8+uA5EEt35KxHfunLFq0wtwcOtoTG55AnESrdBys+voMXCJxQpMwp6CXbwYM7L2wAYQAAJAAAgAgb+AAF7dMpXxzsnI/elsPe+alVVNhRzrj9bZg9tgjKQZhoqHbveX+yrV4kRe7E21r7z31zT1bJzeR1M0Q1PJWOD+cm+hiwuK4QqpekmdUlAYPLN9P432xRVS1cTwksqu6YO7MGKWDN+5bVV8fLeqacJ1fB9OUAxSUr7LzcH6Egwv3NwiLBJCC+Vq17ZObuycnHs8B+7TAJryeLdQzSs3id5VpGB9w8PeRPu+RHS/YR2gKCAABIAAEAACQAAIAIEPJ1BeZcQz46jOLd6SFL8AACAASURBVG4G2MEAJtLNHy8aQft+fBt8eE8FA4AAEAACQAAIAAEg8GoCFT1HJEPGQ8GHIJ/pSgfXrfpXF/vGUg207xsD/WwNDPYAASAABIAAEAACQOA9CCiN9s2z24doguR+6Pdyb7a7/scnC/oqMBy0L2hfIAAEgAAQAAJAAAgAge9CALTvd2np9xjwfb6xHdQaCAABIAAEgAAQAAJCAqB9QfsCASAABIAAEAACQAAIfBcCoH2/S0sLRzywDQSAABAAAkAACACB70mgKO1bZ1QdzujrjNySvfBcGwgAASAABIAAEAACQAAIfE0CRWnfp37bAkKnQAAIAAEgAASAABAAAkDgCxAA7fsFGul7PpKAWgMBIAAEgAAQAAJA4M0JgPYF7QsEgAAQAAJAAAgAASDwXQiA9v0uLf3mwyYoEAgAASAABIAAEAACX44AaF/QvkAACAABIAAEgAAQAALfhcA7al91bX1XX994TxWeB1dm1yecQvglrP0SRn7CxgWTgAAQAAJA4OMJ6A1tdvvIWFst8eViimDw5yfwftq3tHXVz7AsuW9T52pfmV1FEVSbJ88jifDZRIumqONfd1e/1trXXb3IChZpZInKoGto0mlyW6TIq8BhQAAIAAEgAASeIPACH03YNmMMy8Q2rOonCn8Xl/rBNrwAYB4WcPfCRnxa+5Yp8b4O9eGMvq9DXaZ8uUiSUWMyu4S2Sm2XGKcvaJZlqfPJupK89pY668Wfv9LaF1/3WScWZaSmfzfFsrR/oQVWbn55x35Wu8DBQAAIAIHvRuAlPvpraF+NzjK9fuoNJykqFfNf7k3bassyIqTcNLx84o2kKCoV9XrcQ+aKF+uTlwDMmJHubODuxUCe0L46A7E+ojuc0fOv9RGdzvDCBxAyakxmV3HfEYa6IcfS4pBR9x4K5tXWfhojtQN7JGjf92iO4roxWAIEgAAQ+CsJPN9HfwXt+8O86kNxN5YhkylugyVvJhuQRiqpGT2MMygmFw89xEi0lbqaaHxxDPv5AMVSTwHuXgxETvuWKXGh8M3K37zor8Y057kNxlM0TaVivvPt0bbM+EZt+rXu8UZJmoz7vKEUK8h5kNmVNRE39W2dXvnCcZJm6FTo9mB+cm7d44ukKDL+cLY1Ua/lviaENwlu6nOfXnqD4XiKoqlE8GZnrkuTzTBWVjSMOY+9Ua6Aq615u57gSlDWWRw7x7cPUXRSMuzdtlWIJb6MtVJlolroa4fWDu7CCWRK6NLVr0WBc5XaMr9zHYpTNJmIBm73Brhb5VEeifoooZ+8oliWupjSK3EFburf9lwHInESsQ57PRuTFnW2dpJGSjQQfyF056I/5mG1kS9KWdk47j7xx0iKjD1cuqezl3jK8mzDwQYQAAJAAAh8agIF3ROukPRohb7/39xHZ4nxbp2lQl5vKEmSieDFzpSJD73JuEh0eqF6yZzypPfPmlRgo7J90Tlhqy9X4qWVAztRhmWp45EqBUZUztzQLEvfLdercQVu7D+OMywTdnb9yCnkbQHKVPPt3b2ErsBwhbKqadx17I0kKZpKxYO+68O1Xk78yPSu9x7yyWlf/qeMs0Hf7EbejxurGpb9iVjI7/cHE2jsw8R2rSgEW2ndCaPhDkPGo7FkelTE5/vK7BIgSPd+lkpEw3EqrdFYKh5NcG+Yhw3LPxiuEGrf7CnJaCjKXzPlGedzIbQNjjsSlUInYwluIEYHd3pVykwJGUvJiKuV18TpbipjrXSZmMY4e5XkjKYS0UiCjGzZkbWGwb0EsiEWuLm48YVjx70GQZUxXDw+E2vfbO0SkVCUH2fSfqcdR3bKGCnRQOmbgYoF/V6f//50thZpX1QjNEqh4gHfQwyBJq/nW9BznCctz7mr4S0QAAJAAAh8RgIS7on7/i/sJQt+/z+6pDfx0QJXmCmZpclYJJ5CSoJNeMZRDEhG4Um5XZlTMhfidUqe9xeYJN+Ouh53lGGZqNOmVWCq+iU/zbKkZ0yDAl6EetRDsSx9PVuZkziaufrbiByZar69u5fQFZi+ec2HhAOd8N9cXQeTDMvS3iVjRl0U7l3ybP/AXjnta2lGab75L0tzXtxeSSiUGqyiRtcw4A4zLBNZ7VSX1EyeUSzLhLd6q0sx/EfHxkNmrpvMrsfwZ46oVbXO3dMsy/hW2sowTZ0DvaH9y3V4RrnySfF8T0onyBvakTUsdTaO+l/FyEEKCfODkfoyjCBsLjT3jr6faVSJ1DOGl6o0pQLWctbKlGkY3EfKN+mZbcVQd1f/VKO02tLGxVtk+tVEAzczD1fl5gDJdF9R7TQVo0fcOPNqvI6QMxKNwwo0kPgbJHOHV4wcoiTg+/kWrQLDyy3OABqubjYTRVgugCZqR/gcCAABIAAEPg8BCfck4yULey6hS3q9jxbySZccd9u1CozArU4f569nTSqx5xKHh6TqVaxXzfX+xToydWP/AZI+ifOpSu7x6T8dGwEU76Mi9xfHp+fX3GNv2reEFEuBanJT+l4PUKaaol0ZG17p7gvpipKqsROSi4AO1JRgODZwhEQ/r31l9JKQybtsy2nfYuO+yirz4rEPifvsX9JtV5d1bcWQ9tu1qBBoYZqszC7JboGp27cTLMtEXV1lGF5m2+HeuM2EjPbFieFTxP3eUYvjZVY0KmNTe1Z+oQm8zYHEOHU4VJGjfUU2YLiMtTJlZnbt23JWUVCZZ/noMxW9OVjta60S6mx0aVEfFd/Ywi8aDFeouJmwLPm7VytjpEKigcQXSt8MabOzLclvUCcoOP2k5e/SZXNaB94CASAABIDAswhIuafM54W8ZMHvf5FLeq2PFlVBVDKuICyrERQ82+3TiT2XyEVm7M9zu8V71Rd4MV371FmMYdnk7Zr5cUKUprJ3ee8mGCNpOhUOxTghfMnlLgovIarmqwHKVFO06y3cvYSuQFJEILSE2jfTOoV6l5DJu2zLad8i831/2rYjDMskbzYmB219s7sh1AfS2hchSPfCXO0rsUu696vNLoQ05rYj7csJWSa21SarfQty70pr3/al4rWvhLXZtswvM9sD0rsEzVmib+le3L0I87H/kLO7QlRrdf8uGjYFl9tUCkx0Y+dqdMHXQeZyBWhLNZBCw811YwKLgnUe0hqa9u8uO2YXM6/5QSMH7QnLBXUU1Qg+BwJAAAgAgU9DIOMv9nLck4xHQ/O38j2XWLq90keLvIaoZFGgRyHtIqXqJXNKrld9bhvpLYu3SZZlIp65RqnZ9hrLChIbTGCtI7sKRLqyomq+VuTIVfOt3b2Urijr2o6jiX1pgVusBnsu9lcfL6d9FRhexDoPhG7igk9kqVDiCqVpCj3RR9q3pHochb7ZxMlU009x3Fdml3Tvf3W3qOSe5mdzHroyOQ+m3JwHkQ0YLmetdJkl1ROnSMLGjyZMP1E7ET+1OhTixQ1qA5ftQNT2H6HM3/gWUvOPFyUsK1ymxsVMQ1lh7Rt32TQKjFBaNtEkU/p+1qSSNlKygRSE3cl10oOhapR3gatKUWXTZp/MmHHu6Uyp1qjTczP/nrRcWAvYBgJAAAgAgU9JIPs9n+uepD1aYc/1ttJNyEpUssYwcoTCvtT1eB2hkHaRkvWSPuV12reyaxcl+cY80zV5P1zA+XSVsqFnzoNsZ1NX4w15y4mKqvlqkSNXzbd195K6oqRmikt2je2PmcpV+prZy8ecB5neJWz6d9l+QvsqMPzJ9X1/tK8HUMOSoduzo5MrP5onhbSvAtO3rPm5SWl0MhoK8ct8pH/bQmaXUAUKV7d+dbfAtI1L9+I8aya026/OznWTXEZbxlrpMjGDeTPAz8lDc93iKdLrMOJ4acuyjyajD77bO38EWUNdz5nEKb/alo0gl0FCxsKhCDelLb3OA3+fcLP1wqEol2bCxE/HUPq/NG3pBqrs3udWYaGT4WA4HtvlskEMrRt8q6EpgZFYimLSCycXYbmg7d6l+z4OGOByQAAIAAEgUCyBwu5JIe0lC3//v610ExqfdnYMGQ8H09PW6YCLn9gt7SIl3K4Ckz5FVIXnubCSqnGUVckyyciDPxDgX/fbAwSaY1P967c/FOcm1SPh63P21eXmN+ZMasLeQORIigfsjd29jK7o3ArySxtkcyezc90kNZiw6d9l+2ntq8Dwpno06a2pPm+KW9pEvXHEdeKLJmmGZahkNHh7vjfcxI1v8Ormya0TtNQFQ5PJyMOdZ2+qjl9CQWZXtuaiTvn6bsEtvTG55QnESbTm2M2uo8fA5SI/PfKTsVZZ1VSwTBRJrW6ZylQ/Gbk/na0n8B+tswe3KAeIYah46HZ/ua8yf7yoaerZOL2PpmiGppKxwP3l3kIXWswh/XXAL/tCUdyyL436zO0qaaRkA5VUdk0f3IXRdZLhO7etio/vVjVNuI7vwwmKQZx8l5uD9SVYcZZn2w42gAAQAAJA4NMSKOSeUDRBwqMV9lxv7qOzuNCCnmfXgUiCW+E04jt3zli12YliUi5Swu2iekmdIqpCxplmzZDdKG1eQpPuxX+UZwwF1DBDzxFJJaP+W8/WynhrjcSPzoqu/hYiR6qaGP7W7l5SVyiI2tbJjZ2Tc4/nwH2KpvzRdwvVfNtJ9K73D2O9ifZ9Xnd5/0r+PVcU3SeAHQgAASAABIAAEAACn4hAeZURT/9yQlXnFjcD7GAAkx1FvL9IA+37iXrM080P2veT3T9PNxkYDASAABAAAkDguxCo6DkiGTIeCj4E+UxXOrhu1X82XwnaF7TvlyLwXb4+oFGAABAAAkAACHw1AkqjffPs9iGaILkf+r3cm+2uz/01u0/gx0H7frWO9Qk6zWcbwIE9QAAIAAEgAASAABAokgBoX9C+QAAIAAEgAASAABAAAt+FAGjf79LSRQ6G4DAgAASAABAAAkAACPzFBED7gvYFAkAACAABIAAEgAAQ+C4EitK+dUbV4Yy+zpj3kySQewoEgAAQAAJAAAgAASAABL4OgaK071O/bfFdBgp/cfwfqgYEgAAQAAJAAAgAge9AALQvCHcgAASAABAAAkAACACB70IAtO93aenvMJKDOgIBIAAEgAAQAAJAQJ4AaF/QvkAACAABIAAEgAAQAALfhQBo3+/S0vJjINgLBIAAEAACQAAIAIHvQOAdta+6tr6rr2+8pwrPk5uSu/SGNrt9ZKytlniPxpA0I8/grzOZ8T24AQ0gAASAABAAAm9J4H29/1ta/kzBAMLjI+C/n/YtbV31MyxL7tvUuT1Dchdh24wxLBPbsKrfQcNJmvERDfMO9YVLAAEgAASAABD44wTU5snzSCJ8NtGiKfZa7+v9i7XqD4gBEB4fAv9p7VumxPs61Icz+r4OdZkyV7YWb7RMA0vuet/eL2nGH+juxXODI4EAEAACQAAIfF0CJcbpC5plWep8sq6kSH/6vt7/RWz1vw5JttAfE1xvyn++LVHxtxYearV5aMZ1dO4LxxK+xVapn2UgCPP0fpBmqeMe3aOuw4dOKGGNmMhaZ17kUVnTsxuIpFCLsgyVjAVvPb/nBlvwjD782bufYlmW9i+ahUOdyq7dGMOy9NW0IXPki7A/Wvua05/QvjoDsT6iO5zR86/1EZ3O8ML0A5kGltz1vr1f0gyJLvsa7nAuEAACQAAIAIHvQcBQN+RYWhwyCmTWExV/X+//hDGFNYC++yDFpP94wZh+Qz2smT5E++JG6+ZdguFEKRl78J5Pmwto339qLEPOqwinXcXalzBMXdEsS8VD/kAAvfxXs/klKOvH0FEsQyZj8STJXY5lyfvVznIEijBMX/NlJ09GNRmZW2pavOXVcmijuWg4L2qXosSxnPYtU+JC4ZuVv3nRX41pznMbjKdomkrFfOfbo20V6bGd2vRr3eONkjQZ93lDaCiQzXmQ2ZXtZ3zvZ6mQ1xtKkmQieLEzZcqKb2VFw5jz2BtNUWT84Wpr3q4n+DpL2KOsszh2jm8foimKppJh77atglAUY0bWHtgAAkAACAABIPA3ENDXDq0d3IUTFE0lQpeufi0vUyQdq0ptmd+5DsUpmkxEA7d7Aw2EAjf1bZ1e+cJxkmboVOj2YH5ybt3ji3Be+Wxrol7LOWWhkMVNfe7TS28wHEeeOBG82Znr0uSLIRnvrx3YI1FYcaFFpcAI/eQVxbLUxZQ+LbMK1UvmlILC4Hntq2pcDTIiG7haS5LEpYVHQfVi6D5Isiwb3/n1kzMMHzxKsSyKLqc1T1r51C3ekSxLBvbHbSalAGl5u+MskoxcLbdocYXSOHyOwtU0SaIQryjuq6pz+GmWvpyulwvPp7Uv41s2l2J4iabetvWABHBy34aaW9W0HkrrYdq/2MqHfg3W39GMSD7s1vAGf+S/ctqX/ynjbNA3u5H348aqhmV/Ihby+/3BBDcaiO1a0fCu0roTRrVlyHg0luQHAmntK7NLgCPd+1ErxSLxFEcu4Rnnuri2wYGamWXpZCzBjTzo4E6vCvV+CXsypfHmkBFXK1GcGc+7DQT2w4lAAAgAASAABD4dAY1x9grpKZalEtFIgoxs2f9BRko7VsPgXgI53Fjg5uLGF44d9xpwRcarUoloOJ59Wk7FownuDfOwYUHF8ofxU3eypySjoSivC1Ke8bxciMxhBby/jJDFJOolc0rmQgJh8FwnXlD7SpOUk0aF1Ytq6ASJ3bCzRYXaqHMnzrBMaNP6Q9ivDIN7SZZlkrfHu7uHB+6NhZ7WqlJ0gKp24R7pL9o/34zCwIRtbnHCXt2xhD4VaV91mzvOsvT1Wl9Lq0mtlnjIL9a+Cgwvs+2grkFdjqBlCTTWXZJlmVg4QrJMbK8fx/AS4/Q5yTKREFKE6cOeC/mNj5fTvpZmlOab/7I05+d/EAqlBquo0TUMuMMMy0RWO9UlNZNnFGqurd7qUgz/0bGBhgac9pXZJQpxp2+YuNuuVWAEbnX6ULbI/axJpagYOUB9IXYwUl+GEYTNhSbS0fczjVyEX1nAHtHth+GlKk2ZtIUiM4TdC7aBABAAAkAACHxpAobBfaR8k57ZVgwFjNQ/1ZzrlHaspY3cM2v6aqKBi+ThKhQaTPtobj66qnUOiSnGt9JWhmnqHOgN7V+uw8WHCU/BDO1IMbDU2Xj24Xja+cp4fxkhK1UvmVNE9iBhwOnFZymtQtpXmuQT+qeQeimpGj1GgudhyaxSEJ0rIaSyNrq0QqHyw74T5wYzj//QoZ2+mhIML6m2T2/tORe6dYJgcGkT10Ii7VvRe5wdwLBM6uFw3kKko+kCIELtq1RjNR2jhxEUmUzsWjS4Qlkz6EGB+POFKVeEYanr8Xpd09oDw6ZOJqd2UtmAvaDAj7iV5LRvsXFfZZV58diXTMezOe5Jt11d1rUVQzfXrgWNVHBhNq3MLmFbiu4rdJtZVhFhcrdPV2Z1owB6as/KrxqBtzmQsqYOhyoUEvbklobhxZrxEQ0j4gAGAAEgAASAABB4IwIZB7pvEz99znxeyLGqzLP8o1YqenOw2sfHFEXCUd2+nWBZJurqKsvEApmo20zIaF+cGD6lUNjKUSuQZcj9iUoWeX+FtJDN2J9bL5lTci/0EsIFtG/GkgIk5YSHlHrBqnq5NAffsvmflmUfzTIRt1m0ZBahGUPBRtq72qRXl6qNHZs+NPbIB5upYCHtq1Y1mE0dNsvg1PzuHZqYxsS2eyty1Ugm3/dRZKOt1PWiGcX4laYplNhLHQxV1Tm8NMs87LoO4wwT3e40WJGEe6+Vu3LNzlSc/1xO+xaZ7/vTto2qk7zZmBy09c3uokyPjPZF8jTdC3O1r8Qukbk5vV/FLXnGkr97tdmO1ZXWvu1LGe0rZU9+F0ddsBgzxMhEFsIuIAAEgAAQAAJfikDG9+2lHWjGeBnHqsDwEn1L9+LuRZhPNgw5uyvEXlVtdiGPGnPbkfbl4lNMbKtNVvtiA0ecYlsyymtfgfdXqPu5h+rB5bbcfF+pesmcIq7Cy4KRcto3X6JkjCwgjSTVC4Yre/dQooN/bQCFa5mQ08rlqDwajA+hmC0TWG3gSJa2b6Ac5OROhygn+PH4Qtr3ca8CM9jRowEm4rSWZbpHWvxktS9DkalkLOy/OHJP9pgw/jCcF2OprW51SfU4ytVAf/S9o7UMb51HghxJuA/XUXLaV4HhRazzQOgmLlDfvZ6tUGYlP9K+qNroHkmcTDX9FMd9ZXaJiIi0r8YwcoTCvtT1eB2hqBw5FOY8dGVyHkxqKXvyu3ixZuQ0PLwFAkAACAABIPBlCZRUT5yinMz40YSJmz5F/NTq0LN+SceqUuAGtYHLdiBq+49Qemd8y14m8tF/TvuKvT9hWeESJS5mGsrEc90k6yV9Sr4wEImQopq4gPaVISktPCTVFDJJbV1DqQ7JRJJhmYDDnJt6WtrM5e/SXkebToFp6x13KO57t1CN4yVVtil3ETkPRJW+Rs+nfJToOxfvkJbmJ7SJmAhzHvL5EHZnHEX/1y1qBabvQKFRlk15BmsIhbJx8oZLMR6pEhWYX8if/+QJ7YuymJ9a3/dH+3oAVY4M3Z4dnVz5kcxH2leB6VvW/FzyCJ2MhkIxbkJaeq6bzC7ByIO/r9BcuXAwnRRPB1x2HHHRNi7di+e6MaHdfrUSl7RHdJfyVynOjD/fDB/eD8AAIAAEgAAQ+DYEDObNAD8dDc11i6dIr4OLvEo61lL0qJ2MPvhu7/wR5Hqp6zlTicir/gHtK+H9W7iYJsuSsXCIX2g2s86DZL0kTxFVQSA/nuH3C2lfaYkiI40k1QsyRlUzj+QsF0RdrMkJk6NkA2PfcRxpMSr+8BBDTcREd/trSvLmuvGdPD/uyz2cZ8hEJBiKpOcqJs5HGvJWSZPXvumofGi5HZ1Y2jjuOj7Znbeg5c+UxhEuUno5I7uOxDPIv6y90FlPa18FhjfVo0lvTfW544zM14TeOOI68UWTNIMWOo4Gb8/3hps4Xnh18+TWiTeSpBiaTEYe7jx7U3V8BF5mV7bmuKl/++w6EElw66dEfOfOGas22+TKqqbJLU8gTqIVWm52HT0GLrFYgUnYU7CLF2NG1h7YAAJAAAgAASDwFxDAq1umMt45Gbk/na3nXbOEY/3ROntwG4yRNMNQ8dDt/nJfpTonK/dNta+899c09Wyc3kdTNENTyVjg/nJvoYsLiuEKqXpJnVJQGDyvfQtqX1whQRIJJ0nhIaFeeHsqhrm1zsiTsdrCa5BpW/o4LBSVinhPlvob+TXRytsd59FUeo2zTNXyte8/LVNbZ/cPMUQ1FXu43F/5ZdJnZJ5AZcprX8Mol8XCr0AnOAtdt6qfy+72OlqfP6Ewp6jXvn0T7ftaIwrAzTQP7AICQAAIAAEgAASAwLclUKJEy41hHeto7lhkp7P4nwgBKSVBALQvCHcgAASAABAAAkAACHxOAlrr72gswv1IApM4Gf/4hIG/YBAC2vdz9nWwCggAASAABIAAEPj2BJT1A4fBBEmTMd/BgpX7Aa9vz0Qimlu8KAftC30ICAABIAAEgAAQAAJA4LsQAO37XVq6+PEQHAkEgAAQAAJAAAgAgb+VAGhf0L5AAAgAASAABIAAEAAC34UAaN/v0tJ/6+gN6gUEgAAQAAJAAAgAgeIJFKV964yqwxl9nTFvieNXpxsXbygcCQSAABAAAkAACAABIAAEXkmgKO371G9bQOgUCAABIAAEgAAQAAJAAAh8AQKgfb9AI71yfAOnAwEgAASAABAAAkAACPAEQPuC9gUCQAAIAAEgAASAABD4LgRA+36XlobRHhAAAkAACAABIAAEgABoX9C+QAAIAAEgAASAABAAAt+FwDtqX3VtfVdf33hPFZ4HV2bX2y4loaxpGp6dX1/vN8GaFXmt8LaooTQgAASAABAAAi8koDe02e0jY221xF8epHw3/fPChvg7pcL7ad/S1lU/w7Lkvk2di1Jm1xt3esK2GWNYJrZhVb9xydCrgAAQAAJAAAgAgXwCavPkeSQRPpto0RTreb+Ns34//ZPfLt/4k6e1b5kS7+tQH87o+zrUZcpc2VpsP8ZwmQaW2VV8+UUd+bzbiSDM0/tBmqWOe3SCiuvNA5ue+2iKolLh+5OV4RZMsgNJlIDXtM3vXYWSJBn3X26PmCtKCpSg0Vmm10+94SRFpWL+y71pW21Z9jDJEmTPQqdLmJQtGTaAABAAAkAACLwdgRLj9AXNsix1PllXyNkJ3Gv2os9z1oVKyBb1pzb0vw5JttAfE1xvyn++LWHGW+ufIl184cPKTcPLJ94IUjdRr8c9VFicZGhrutZDDMuyqbMJvVgc/uzdT7EsS/sXzcLRTmXXboxhWfpq2iA+vij9JgHwZec+oX11BmJ9RHc4o+df6yM6neGFDyBkGlhm18tqJXlW0bfTPzWWIedVBN2urEj7KuuHz5OoTRPBW28YtS4T3xuozr+fJUvAdM1rPgqdSCZT3AWSF2MNuTkYP8yrPm5n9iiWvJls4OFLliB7Fi5tUqYrv2nfkmwFuAoQAAJAAAh8IwKGuiHH0uKQURhFkq9+0c764xyNvvsgxaT/eAmcfkM9rJk+QvsW6eKlDiupGT2MIy1LxUMPMZJTtVcTjVIPyQntqAeJISRmAkttQo1LGKavefWUPBnVZGRuqWnxllc1oY3movn8ofaV075lSlwofLPyNy/6qzHNeW6D8RRNU6mY73x7tC0TyFSbfq17vFGSJuM+bwgpxWzOg8yu9C1R0X2YYlkm4upC8U5t/26Kpe8WqpW4QmmaQgjpi+l6JDqVFQ1jzmNvNEWR8YerrXm7nuDEnLLO4tg5vn2IpiiaSoa927Yq+2POg7Kq0/2ASgnu2qrFgl5pHD5H4zmaJJFIFcR9S+pmL2mWpS5GalQKTNu8/sCwbOp3z4+c21imhOrxE5JlmaDTXlmiahg54+rotv/MKQGrbF90Ttjqy5V4aeXATpRBdoxUKTC8RK4EU5vAzgAAIABJREFUybMU0ib9ob4FxQIBIAAEgMBnJaCvHVo7uAsnKJpKhC5d/Vpeo0j5U0yltszvXIfiFE0mooHbvYEGQoGb+rZOr3zhOEkzdCp0ezA/Obfu8UU4Z3y2NVGv5XyxUMjipj736aU3GI4jx5wI3uzMdWnylRB/CkuFvF70iDQRvNiZMvGhN+3AHoliigstKgVG6CevKOSTpzKhx0L1kjklXydUiPVArmvODxWpGleDyEM/2sArEAllguEKSf1TUE0Zug+QyIzv/OJ1Aj54hHRDcL2Jlzq8hdIuvrzdcRZJRq6WW7S4tBIgKmdukCK6W65X4wrc2H8cZ1gm7OzKlTf85Qjzgo9mmYfDYy/NMvH9AfwRlKqJDwjzod9WXhYbrL+RjkF/5GG3Jh/ju34ip335nzLOBn2zG3k/bqxqWPYnYiG/3x9MIFXPxHataHhXad0Jo6oyZDwaS/KjgLT2ldmVrT+hHvWgHn43X63Eyzo2UeciT/sqcIV+6ADtuJ9BU9a0DY477sEDnYwluKEKHdzpVSlxRfrmSV+fjLhaNdl8X0Pd7GWCYZn42ZhJOF5JX52wzS1O2Ks7lu6R0hXkPFSMcII86OqtLVPW9KBREnU105gf95UqoZx7FsCEN5u5XksMn1Jo1LTakH/zZ3uSrscdZVgm6rRpFRhebAnisxQYLmXSZ/1qzvYE2AACQAAIAIE3JKAxzl7xQTsqEY0kyMiW/R/kcaT9qWFwL4G0TCxwc3HjC8eOew2PTpZKRMNxFCni/qh4NMG9YR42LKhYofbN+GUqGQ1FeV2Q8ozn5UJkDmNpMhaJpzjRlPCMI4ErI2QxiXrJnJK5EK9TkE4QCsqsF5bbKKh9pUnKSaPCako1dILEbtjZokJt1LmDVGlo05qjSiVcvKp2AQkZlvbPN6MnzFKH1S/5aZYlPWNcpBYJMIpl6evZykzgVigVyu3bEYalb+draidOSZalrkaN2TGDxrqLInyxcIRkmdheP47hJcbpc5JlIiEkCqnLkY+ewiinfS3NKM03/2VpzouBKwmFUoNV1OgaBtxhhmUiq53qkprJMyTrwlu91aUY/qNjA8VIOe0rs0sIt6R26pxiWfKk16CqXfRysjrusmt/WFwRhmUCK0gvVowcoE4ROxipL8MIwuZCM+ro+5lGleh+w/BSlaY0fQcmTnePUZpK8mah3SC8Ys52aZMjV/timprxE07Rk5FwnGaZ6MlEFeqOhV95JRD6KTRIpW/nqrj+VGbbjqN8md+dUveburH/ADFNnE9VIn1cXAm5Zz2al2fS4y6pWsDnQAAIAAEg8PcQMAzuI+Wb9My2YsgTqX+qubw7aX9a2sg9sKavJhq4aBGuQhGftEvlpo+rWueQv2R8K21lmKaOc560f7kOFx8mPAUztCPFwFJn49kn42nI6cPibrtWgRG41enjPPusSSWnfaXq9aT2zcyARzpBwptLt34h7StN8gn9U1BNVY0eI53zsGRWKYjOlRBSWRtdKBaW/8p38SXV9umtPedCt04QYss/7J+OjQCSWVTk/uL49Pyae1RP+5ZQC+ZcSFnTj9Q4dTZRV4JV9hwmM+3OHamsGUSymTpfmEJajboer9c1rT0wbOpkcmonlY3Z5xWbc5U/+VZO+xYb91VWmRePfcl0MJsb9iXddnVZ11YM3Vy7Fk4aCpN6ZXaJECsbJq5plolt2hpHLigmEY8zjH+lox7pYCaw1lGG4WVWFBJlU3tWfvkIvM2BJDZ1OFQhui15iPztxA9NWfJ8ikuZkOab3zkUWKV59TbBMNHb01N/AtU55V21VeXHffmK5JWAlCt6rFCk9tW1T52h3PDk7Zo5nWldRAkFznrsZHkmPe4SwZfGAocBASAABIDA1yWQ8Zv7NvGj58znhfypyjzLP2GlojcHq32tVUgjioSsun07wbJMlEtTLLPtcG/cZkJ8mOgUnH/ySd87anMElvgwBWFZjaDg2W6fTkb7ZuzPrZfMKeIqvMwbFtC+GUsKkJTTPxJqSoFV9XJpDr5l8z8tyyjXIOI25y2ZxXfIIl18ocM0lb3LezfBGEnTqXAoxgnhy2wyySMclPxJsWzqtL8KxXqVvXtxFOfMmJTOSqUOhqrqHEitPey6DuMME93uNFhRO2ZGGh94B8lp3yLzfX/aUOibSd5sTA7a+mZ3uYBqWvsiVZruhbnaV2KXmAVRPXdHs4x/23WUYgIbUw4fTd+5N64olgmtdqDRZ7aHdaW1b/vS09qXDAbRNDYmfl4w4SFrQ37n+NGOotdMyN2G8mYqmpbvUBA3/77NCMf8Esr7uDh1JtebGDqRzHnQWxZv0XAq4plrFEwReKIEibNkKpXdBRtAAAgAASDw1xNA8ouLGaX9ZsZhyflTDC/Rt3Qv7l6E+RzDkLM7J8CkNrtQqTG3PRuWYmJbbbLaFxs4Qj7Uu2SU174qLl+RJX/3ahXqfu6JenC5LTffV6peMqf8ae2br0wyRhaQRlJqKq0vGZbxrw2ggDoTclq5HJVHPZrttPmqI7tLuPHEYRrLCpJS6SCj8EQFpuKzI9JRxMf/4r97DehInJdhqa1uNZqehGZ6oZSLe0drGd46j2bxc+2Y6XXiwgvU6E8cIKd9FRhexDoPhG7igk8KqXichYbivukpWWziZKrpp3iNM5ldOZUsaZjnsq9pmoluWPWm1QeGpWmGZYIbzXymQSWfgJvJeejK5DyYcnMeUMnZoWR3y7AHTWik/E6zXpJ1fufAh445qbrehKQ2oRo4RENbbkGTkirblPvpxwolNZPoaQDzsN5VUULUD6GJkkxkC811E5dQ2bWLknxjnuka8fBOpgQFJnlWFmx+pbK7YAMIAAEgAAT+egIl1VyOJhM/mjBx06eIn1odiuPK+FPcoDZw2Q5Ebf8RyvyNb9nLsi4VLZn/57SvxjByhMK+1PV4HaEgLCtcosTFTEOZeK6bZL2kT3lUBS9f9b9A3FeGpLT+kVRTqEOqrWso1SGZSKKMT4c5L/U0IyXzXbxYWqQFT/5hmW6vUjb0zHkQbzZ1NZ63CJVCZUFJFyyTCPu9vvTrIY6CxKmTUTWaamV3ojhwdN2iVmD6DhQdZdmUZ7CGUCgbJ5GkS0/cz1xRUoP9uQOe0L4osPrU+r4/2tcDqGZk6Pbs6OTKjzQ+0r4KTN+y5ucS3ulkNBTil8xIz3WT2SWmkCbFMrGdDg1e1s4trIDGIu2ZxW61jUv34rluTGi3n2uA7My2TC8R3Kgllf07qEWY4NYvItNpckDnd46S6uEDNLJlyYjv+jbAPROgfWud/2C56eR8UfklKDBDmyuIugmdivPzAZKX42gZEVEJJVXjaBIcyyQjD/5AgH/dbw9wpkqVgMue9WSPF5OXYJKDCN4CASAABIDAVyNgMG8G+OloaK5bPEV6HVzkVdKflqJH7WT0wXd7548gj0tdz5lKBC71j2hfNFM9HExPiaMDLju3mIC2ZQNNfWdZMhYORbilQjNrLEjWS/IUURVe5gQLaV9MkqSMNJJWU7gCU9XM3yHlgCKoizU5YXKBv85THSJpke2oeYfhCmX1r9/+UJxbMgCpVZ+zry4/+/ln1xY/9BipyU5uw/F+FAdkqYvhGiITZQ8tt6Mk8tLGcdfxye68pRytymUc4YKllzNPZJxm7fxDG09rXwWGN9WjSW9N9RkFKaDMmaU3jrhOfNEkisdSyWjw9nxvuIlLnMermye3TryRJMXQZDLycOfZm6rjJ3XJ7BKVT+jG0ezA2O8eBI7oXAkymRUeMt1UWdU0ueUJxEm0VMvNrqPHwIeE8/u06BNC1bvHqd+HlU5dQb4FOgeGl5uGlo7vw0maoclo4Gp73q7jalTe7jiPptLLiGSqULAEhareunx0i9aPTgSudkbbKvl0YWEJpc3cEhNcR8/+Q3nGkKbHcKkSnjiLs6qwSRmDC3KAD4EAEAACQOCvIoBXt0xlvHMycn86W8+7Zgl/+qN19uAWZYIyDBUP3e4v91WqBY9S3zzui5v6t8+uA5EEt3paxHfunLFqs4JP09SzcXofTdEMTSVjgfvLvYWu9BpbUvWSOkWkCjKi4nkOsaD2xRUSJFEvktQ/0moKwxUVw9xaZ+TJWK3UFCOkNfPm6AulRbYP5x+mwAw9RySVjPpvPVsr4601BZbAUmB662/0zJz0jKcXxeNZ6fp+c8uAXM02lhhGuUQWfhG6HKRV/SiqR3sdrfmqOmvbO2y8ifbNqRu8BQJAAAgAASAABIAAEHgDAiVKFGHFOtbRxLHITqdg/s87yMS/8hKgfd+gX/6VPQMqBQSAABAAAkAACHw0Aa31dzQW4X4kgUmcjH9wtsBH03gbzQba9204/h29AWoBBIAAEAACQAAIfCICyvqBw2CCpMmY72DBin6363kpGXB8AQKgfQtAgY4FBIAAEAACQAAIAAEg8FcSAO0L2hcIAAEgAASAABAAAkDguxAA7ftdWvqvHLpBpYAAEAACQAAIAAEg8CwCoH1B+wIBIAAEgAAQAAJAAAh8FwJFad86o+pwRl9n5JbshSRrIAAEgAAQAAJAAAgAASDwNQkUpX2f+m2L7zJQeFZEHQ4GAkAACAABIAAEgAAQ+GwEQPuCcAcCQAAIAAEgAASAABD4LgRA+36Xlv5soy6wBwgAASAABIAAEAAC708AtC9oXyAABIAAEAACQAAIAIHvQgC073dp6fcfV8EVgQAQAAJAAAgAASDw2Qh8Gu2rrq3v6usb76nCv5QYVVbW9Y6NLzq6G7hFMHLefs35j5+tj4I9QAAIAAEg8M0I6A1tdvvIWFst8c0q/nYS6IvKqncRTp9F+5a2rvoZliX3bWq5hi9RGXQNTTqN3DGF7xO1efI8kgifTbRoCh+Qwf28SxC2zRjDMrENqxoVm/NWeFHhduZa8pZI7X2eha+7lpQN8DkQAAJAAAgAgaIIvMD95TjT7+HI3ta5FymrimrBv47/09q3TIn3dagPZ/R9Heoy5fNFZ3HIimokTf9uimVp/0LLs1caLjFOX9Asy1Lnk3UlMiY99xI596f4rfCipUUaIGMbv+u5Fj5ZIBwABIAAEAACQOCPERC6Qjn/KzRA7Ew/pT4zdG6HGZZl4oe/KjLSSNvtjDAsS/tW2/8RVqeY7bd27kXJqmIMSx+jVpuHZlxH575wLOFbbJWWYcqqtk0vybJsYrud4MlodJbp9VNvOElRqZj/cm/aVluWf2llTc9uIJJCWo1lqGQseOv5PTfYgmeU58/e/RSLROCiWRjErOzajSHoV9OGzJFPdpgntK/OQKyP6A5n9PxrfUSnM/yRBxBFNZJ2YI98ofZVYIa6IcfS4pBRl+mj+dwxXPHcS+TcnzlvRRctzoCCVgk/fK6FwnNhGwgAASAABIDAexN4vvvLdaayjvu9q5M2pqRm7DiJtNjdYgun5FSV01ckyzKRXavh+Qa/tXMvSlYViQ43WjfvEgwnSsnYg/d82iylfbX181eIikD7/jCv+nhBSyZ5ZcuSN5MNeWJSWT92hY5jyGQsniS5y7Eseb/aWY7sJAzT11wxbPJkVJORuaWmxVu+8NBGc9FJs3Lat0yJC4VvVv7mRn9FDUboJ68olqUupvRKXIGb+rc914FInKRpKhX2ejYmLeqscWrTr3WPN0rSZNznDSE5n8550JjmPLfBeAqdFPOdb4+2VaDBIn8hninLMg+rjXxRysrGcfeJP0ZSZOzh0j0tuES2XYU3Em7qc59eeoPheIqiqUTwZmeuS8MX9dxLCIvNz3kQ7hVuZ61CGyq1ZX7nOhSnaDIRDdzuDfAdQqpSBS18cROILHn+vQqnAwEgAASAwJckoK8dWju4CyeQFwxduvq1vJhQVjSMOY+90RRFxh+utubt+nTorpCrwk19W6dXvnCcpBk6Fbo9mJ+cW/f4ItzJZ1sT9VrOrQjdn4z/FWLkT2GpkNcbSpJkInixM2XiQ28y/g6VUKheMqco6yyOnePbhyiSA8mwd9tWkafJhIaJttXGhTuKZZnYQXcloTD0bUcZlk2djmceL0v58YJ+v6Bzx3CFVCEFLX+erDJ0HyCZGt/59ZOrFz54lGJZJrjelG50XhVo6hbvSJYlA/vjNpMyK+EwvLzdcRZJRq6WW/iGxnDCvhWgWSqZFMd9K9sXnRO2+nIlXlo5sIMoUccjVbnR2bT2ZXzL5lIML9HU27YekABO7ttQ+aqm9VBaD9P+xVY+9Guw/kbFoT/ysLvohFg57cv/lHE26JvdyP1xY5lele6+LJWIhKK83Kf9TjuOKFdad9DzApYh49FYkhfzae2ralj2J2Ihv98fTHCDgNiuVZfVvlQs6Pf6/Pens7WoDbQNjjukm6l4wPcQoxCA63l+ECYQc8J7L2tVMhqK8ldOefjOmu58RV9CWOzLtK9hcC+BBo6xwM3FjS8cO+5F40XpShW08IVNIOAjup/hcyAABIAAEPiLCWiMs+ngHJWIRhJkZMvOPaNHrgepFpZOxhJc4I0O7vSqlLiioKvKOtNENBxH3pf7o+LRBPeGediwoGKFjjJ7Sr7/FbqhzGEsTcYi8RSnbhKecRRTk/F3mES9ZE7JXIhXImTE1SqSfU/1Aa119YFmWSaw+at9zU+zLHW7aFTxZ0n78YIwCzp3GTFQwPJnyyrV0AkSu2FnC7JZ27kTZ1gmtGn9IWwLw+BekmWZ5O3x7u7hgXtjoae1qhQdoKpduEcSjfbPN6MwcEn10H6UYeKeseENNIPrMedBgFHX444yLBN12rTy2leB4WW2HaSPqMsRNOVRY91FUfVYOEKyTGyvH8fwEuP0OckykRBSk+nDBNcS1kK8Lad9Lc0ozTf/ZWnm5nVlC3qyV6WngmkqRo84uX81XkeU1EyeoeFSeKu3uhTDf3RsIHmfneumJBRKDVZRo2sYcIcZlomsdqrFPT5TvYqRQ5QEfD/fgjiWW5wBhmXCm8053ZfvJbwlwm3M0I4uwFJn4yiELqpLEZcQFSW+wwve8NlZcRl6pY1cuJ6+mmjgBjG4CkW4ZSpV0ELRh+LQu8hCURPkdruMSfA5EAACQAAI/M0EDIP7KN6X9My2Yijcq/6p5h5hV4wcICkUOxipL8MIwuZCCoa+n2lUFXZVQv+iap1DQojxrbSVYZo6B3pD+5frcLFnFJ6S43+FPih9WNxt1yowArc6fZwlsyaV2E2L/Z1UvYp1kXipSsOpuoz3F5oksY3bt4PINpJEFfYtmjOSTtqPF4YpMjJjgHQhohEFhiwve76sKqkaPUYt/rBkVimIzpUQklsbXZkqcFX+Yd+JZ4Y16f/p0E5fTQkSu/bprT3nQrcOxxXKmp7DGMNEfvfXlPGrF+RrX3Vj/wGSdInzqUpB/Dh9rwnjvko1VtMxeoiyp9nErkWDyh/0oKyC84UpV4Rhqevxel3T2gPDpk4mp3aeORlMTvu+Wdw3K/hU3KoILPm7V1vWtRVDt96uhRshiRJTlFXmxWNfMh3G5lgn3fbC2rfMioYQuX/UCRc9zfQeWRlKDJ9S6O52oChyoc4ndwnRbSy+w2Uv+vitqjLP8sNsKnpzsNrHDafkrljIQrHZ4u+CHAsFTfBog8QtDQcAASAABIDA30cg7WJS+zbxM+LM53tWfsElvM2BglLU4VCFopCrEssvdft2gmWZqKurLBOxY6JuMyH2jGKXJPK/Qk8kPkxBWFaRCiJ3+3Qy/i5jf269ZE4RV0GgGYTGPLFd1fWbe4jN0r41C5eZisqR8+MFYRZy7nKF5CDC8JfIKqyql0tz8C2b/2lZ9tEsE3GbRcttEZoxFKikvatNenWp2tixiXJ305JJQAbv3gkxTPxoWKPE04ouR/vq2qfO0KS05O2aueDMsUy+r1jRpa4XzejpgdI0hRJ7qYOhqjqHl2aZh13XYZxhotudBivqHlmpKbBK6uaV077F5vuq+7k4dHC5TaXAZIWXoPuiRkKJMek+KtS+P23bqBbJm43JQVvf7C5K8OC0r4ab68YEFgXrPKQbm/bvLjtmFzOv+UGjqPHk7j1s4Ihr1yUjjiuee4mczifzNmeXoG1K9C3di7sXYf5BU8jZXSFXqUIWKl7UBFJ9Aj4HAkAACACBv5hAxv/udYkdZUY7Zj7H25ey2hfD812VWDiqzS7k1WNuO9K+XFiKiW21yWpfkf8VuEVxybhCGLWR9ndS9XqGixTaUPR2WsDQN5P1j7nCcn68IMxCzl2ukDxRkan+c2QVhit791Cig39tAIXqmZDTmrNCBT50jB7SB1YbuEhtafsGinMndzpET9d19gNOw4h1K0t5Biq5EYXesniLMicinrlGqSUHstqXochUMhb2Xxy5J3tMGN8Q6d6Y2upW///2zoOrbeX5+88Le86xITeR5YJtWuihBrBzCQRCQodACCXUmI7pxQV3y2pv7n9mZdmSLcmGkPuDMBzOvcLa+tlV5ruj2bW5bgxiNeCHv13oqKQ75kCQg1+1zMfWSPuaKLqscx6svT9I1MDZdHOltvZNrXscJspq6c2uF2ZabdB0Egt9NNn2mpJXCRDzYHWOn4EYvZyptuSUPtG+Vu8aeN4zeyN1EBhA2yAaum78GCJAUkfTnbQ0MFUNTld+/mVBKGeJ8pqiVc/efauw9q2A25k9/EKaVPin4vRfdaX54aHddjeJdrC+HTqAyJbUpveVQae0Wmh60BDk21D2E45ZkAASQAJI4LkTyNnNg/FWssnJ+rrKCe/6a0gMYS7moV+OeWi1mbRMVaXKrv057etwjx6A25e7HGu0Gtg73X6VNpHyIf0PsoYVxGMq8qR5cgm5xmiIE22Y91Q4KvigLx8iqyjaZO9bhlAHJs0IohBe6FQHtVJ0xbvvJH4lsNDlNFFVTQs34Pe9+VZH0+Zaz+SGFPPg7F6+vLq5yf6GyN4rIRW+Wutzwf6ufh8E+Sb9U/Xq5ZbqUVLGPMgY8wkk8SMkVnrtJsrVAz5SUcz4h+utJkvLxBW4hDX2zxWXQz4poX3Bb1/6fN+qdrIMEEU2GYtKZ7Nlz3mQxobEzceiCRLFIKSOv0K4OuVqXw6RcHieSUSjSRJVT+J9X3WvhKFPbPT65ODoIgTqnmhfqubDbgru8EwsEkslfeS9jLtjVSoHgvPjyQwnaB3iq5wlyusC7XvfKiwNn08lf21yZ7jeXPCnsiLltWIwyDPDJu6C1zehOJTEXc62mimDTmlCeNgQPOz9DuZCAkgACSCBZ03A3fkzLG1Hg71uqQwbWIA3n1RVy/dbyaTJe92EqG/IbqG1TZXKrv0B7Qt74WOR7JZ0PrwubZTXt3eUbr9KqJT7vC7PqzHZlGtqX5O+HdeGeV/5oYIvzcYHyCrYslY/B3KWOFHn6zXCcBsGD4n04lJ3d0mYHkLCN1RvLtrrliNTEPNgrh2D0FJRYOJ3oXBY+r3d+mSVAWYzGmvfrL8/utgNsekVLWPrh0e+ORJkYmkYJS7T8+mmMg+QLq19TRTd1gSb3tqaClcDuX6aHG0Dq8e3iQwv8ByTDN+e73zrh8McpLHJHlPCceSYkhZYBJBfuu7dxOZRIM5wAs8y8bsb/85kI3jRXQ2j60fBBMMLcL5xInJ9uvO5jewirOmf2ruJQT1M7GbDU0v8u3Rt2/j64W0szQlwWEvw/OdwUf+Vs0R5Xah9afM9q3jVNPzDH0pkEqv9wEf1p7Ii5bVivF91zOxdR5IsLwhcKnq9uzhYI62K9Dul3cKHDYGiJfnRxA+RABJAAkjg7yZA17VPyvaXid8ezzRJr7AttW0Tm/5wigVreuVbGHCTPTnapkpl1x5V+8IBqSeX4XianJ4WD56uTfdV5WSZnr2DF8I6/dLLouqCLE7uOfQ62pc26dhxbZjUPeWHZsvvL6vA9Fd/JmedsUdf32prx6r2QaLxOC4TDxx9H2qRzkR7071wmsgozziThESB9s16jom8zv2H83+1y2f0ZuWHsfZ1fyHxqZrfblY7RPZtBRY6ytyq+EjaV2+iaI6NXuK/+nNz7dgRhMzcLeieCP3Ap66EZsUh+KvnVYnRx74jASSABJAAEtAhYLaAA5HqWYG9Y/Ht93qRuDrZn68BQu37ZxSncqLQHdMXsTg5R1iIb3Wr99X+8amD2lc5FniNBJAAEkACSAAJAIGqvl+JZJx8wYKQPhoremH+91JC7fvnta/duxzJ8HwmerUz1l39x8VuwWRF7VsABP9EAkgACSABJIAELE2f9iNplmeTwb1vffANJi+GyR/Wvi+G48uZMdhTJIAEkAASQAJIAAk8XwKofV/QQuf5TlNsORJAAkgACSABJIAEHoUAal/UvkgACSABJIAEkAASQAIvhQBq35cy0o+yVMJCkAASQAJIAAkgASTwrAmUpX0bG2z7067GBjhhF3+RABJAAkgACSABJIAEkMAzJVCW9i393RaoiZEAEkACSAAJIAEkgASQwJMngNoXPdlIAAkgASSABJAAEkACL4UAat+XMtLP9MUENhsJIAEkgASQABJAAo9IALUval8kgASQABJAAkgACSCBl0IAte9LGelHXDBhUUgACSABJIAEkAASeKYE/kPta3/b1D84ODZQSxfJTYNb94uYdrm7vN7Rr11vrc90PLDZSAAJIAEkgARePAG05kVK6X5yCLMbEfjvtG9Fx1JIEEV212MvbJDBrfs9/1bPz6QgCsnVPnthRnvnxGk8HTsZb3cU3nra88lsczub25yOQmjPqxfYWiSABJAAEnihBB5gfw2s+dM22fcZYlv9t1teFNmTsSrLb5r4RyzqN1vyPLKX1r6VFnqwx74/7RrssVf+xvAYCFyDW/eZRrRJ/2kxN0yd8aIocqcTjeZn9OQ4hnwZUeRD39rxcOXn8UTdb8Y+o6mITUUCSAAJPIjAQ+yvvjV/ev/GWq2dU7sRXuQOB5wKO0XXd83tXEQZlk2FzrdGO6sLtQdfmr6sAAAgAElEQVTdMRcE6XvwuU6+pVMUYLfbO0em1w9Og7FkOjjfoZYEqqIczt6pleNAjOG4TDJ0vjPleVupGjiDWhTtV2UxrJ2ize6Of+d/+YMJhuPZVPTyYOVjm0saqdeD+6xY+CPEfr6zquuy1A/4wvEMCDVR4Jhk5Nr/a3a4nZZl5+uPuxkR5NB8p9KDWdPvSwqiyF9MueWU5cyQEtrX6baujDr3p13S78qo0+l+YDiBgcA1uFVOH/JpjJ4Wd+PIwvf5kQbl1FQNrXoYnsitqk87LGrfJzk0T2SGYDOQABJAAk+dwP3tr5E1f0IW4Z/63pG1izgRbGrt63y3HORAxrGMpOeYs6/NKsFa2bkML8OZgwE39Ei/KNpEN/T9vEkLRBayybvA6VSnblGvOpdAUStqFtmrieascjOqRW8WlardRNHmt+NHjMBnUrFYgpFqj210kffVrz9shGKxaPY3e5cPLDQUhL9amr5eQE6BZZIphiWdFUX2dun9G2iY1T11KWFmjr44ZJlb0Tp/LVUXXX1XUKBed8jnRtq30kIrhW9O/hZ5fx2ts/7rSCrD81wmGTzd+tIlr2/srf+u+AMJlmdTwUAUNHsu5sHgVr7F+iVTrrcjy3s3sTTHc+no+foQvDKQnhaRTyeTGY5LR699816nhKPgQbLUtIxtHIWSLMcm7843pnrtkMzt3WVEUUz9GnhN2kB93EmLohBb67DRJu0stIluHdw8vgjGUiwv8Jno9d7cxOyKPxjPcGzq7mRzvKlKflANStg4Pg9EYqkM9CZytT3b75CaLWlfeckk3C21wOc2e+/c9mU0xfFsOhG+3vkkT+v8MiDPUK4dP0ECSAAJIAEkkCWgZUMp2mSpbv66dhhIEAt2sTnndWX9c1p2p0zzp7S/dOugnr1TDk3WmnPRQAA8p+nI2fZkq+R6U7mErK6JC04UubNJV1YPafXLIIulsXdh+/D6LgHml4kFtjzVZTv4LA2fT8GnybMsyFyF39dcN3bEiqIQWfPWmG3NoycZURTiG15JWhBL7WhfjQqimNodsgB23aJMlKNx/oYVRTa8O+ZptUjaQMmKUhdF1XTPr417mt5Y6IqaT9sJAVo2WguVGtWiJxV0a3/TvXASZ+IXi+0gcmyW2rp/yBC8al+ESA7u7HN9Ick3Paugy7nb+S5noVzJal8huNhZQdFmR5Nn8w4EMLPrIeW3rQAu+OFD8x2S69fd9wu6Bz/s/of7hIYaaV/pq4xzTt/cRdGXG9uaF0PpZDQUCkXSRLYnfX3gXq3p245BswQ2lUhKSwFZ+xrcUg6AXsmOhpkLUKmiyKUT8TQb3/T+Q+W0ryhw6Xh2dcGeTDTB2wTls0dVNS/cgBDnUuHgXRLmLHs5115J0fTwAZmh65022kRVdW9C+HB8w/uPfhZZcENLYikoi/xwqUSa/CHcrfZC28opgUlEs83O+MdIbEZW+3LJSCgQDN0ez7ylaZN7GCS5yCfDV2dXwVjy8CNZNRbOJNWzoaSK10gACSABJPCSCejYUGKnyBtqnkmmie+Nj2x/tFl07E5WoZYyf0r7m8tSbO+UNktOJvJsMp7KEIGT9o+BwDUQspROvwyyyBVJOoWNr3cUvItXtqro2uqZnR/31vV8J2ovH/Pwhrygz73Zt34+5kRRCC8155Sr3bMaF0QhtflvNjZAryiw+IwoCsz1oc+3v7ex+m2go7ZC2ZKiovJiwDmwkRBEIbHmqZI+1K1FWaDyWrd221sSrCzyobl3xAltqfOsnZ1fBSKMIPIJ/7f3oOmVv3Tb1DXBsNqrWAPIadTa10TRlZ5tUDrc+SicXuDo88FiIhmLs6KQ3BmiKdrcMHXKikI8CkIzm0wuTVmv1rWR9u19B2G+xb+974p2klmsJouDqq53Nn/aiIFcXHpvN9dPnEA3Y5sf6yoo+lXPKmh44vc1uKUiBcsUjZJN7mHin2X8Mx0UrDPsr+0EvfIBo9zd0BSROxnPu4SlbXDVo/sQRHs71w6z4U3vWlgQs3O0+vMeiN/IYrfdZOtdgr6QSWOQRVmprWMWngAh+KOrknI0LsAffGixkaZNZZaQb/YYePVVT2x2UCtaiJOfvxhvJksf2iaHCpU76oWQtWYGpkECSAAJIIG/k4CeDa0eJRYwuTfaVElZrZ51eCnP30632LTtTpnmT5lMeV1g75SWKJssteGtMlFWum8tSFoy02pTm0W131evXypLqs6iag9dYXOoZKWySfrXFW3E2Of9vlbXJHij+evZWuIKrfRspURRzPx6LwvrN15wyAqJrW61t7KoKPqVdxvyKn/46PZgfc7u6xVlsrcM7YGISZ9O1uQ0N+lFcS1689ygdnOdd2pzZ+3bh+zbdUvD6FnO/ccGf32uljsrFW75F5y0QupgoLbQHwwJlNrXYqfqe77sx2HJk/b1OmiTpX7YD/7902+T63FB5C7Hmpxty3eCmDmamNy+/7YoI+1brt/XUts5fxhkso5nMkDMhtde2b+ZBH+1rxd8qLQyqNfglmoA9Erug5WMmNn1qCeN2rlLSyst/nYBfKWK+V0pZVfOJFhbHBHvafWHPVhhBRc7XxOxLsTWO+20URZFySbK3r0FURKJ9f5KedUiJDY6reWXoG626omVpa2tcwZegIgil7jaWxosWALqP58qtpgMCSABJIAEXiSBrEUrsqHy5zt90nFMdNcCuKy4/ZFqk6bdKc/8Ke2v6ppS2zvlWKhKpk3W3iUQQqxv0GmgfeX2F2kDlSU10r4Ps5JFUhK0L3i+dLWvu9+XEkUhutZPXgvLxp2ii4tyfAUvIh9YanPZK+wNPT8haiArbICYTlHO7skT2ATGXC93Fm3TKqol3wA1AWup2gszVtir3X0L/hTUvPupJl+apf7TMThuQ8vdr5QDnbuW433V0ixzOd8JiCytkxDYy+2N1DYuBHhRuPOt76cEIbH13t0Hc0PzgK9c4UUXRtq3zHjf154tqJe5Wp0Y9gzO+CAkQ9a+CoVaqH11buVJUXSpknf6C45LUz8t1KcDMmO+Q0i14lZWefMh3+LCzLz8OzfcQEqj/oVNg0JodXwtKohCeLnnFUUbZVGUbKLsnesw25IbXtC+RGQLyc0ua/kl0KpmO8heNyE8rz7nwexq/zDvO4tJ76aiax+qldzwGgkgASSABJCAHgGwaGCCC22orB3lz+nu7zntS9Eadqc886e0v6prSm3vlAJFVTJtspEDTEX218cqk32IvP2OLHbZTJRKyOr1yyBLQXv0iBl/Xiwl3wwSB7q8Acs6cqSKecgGEkR/9CiPLAAdWVwUPXKozFvRvRoBkbXdI3lVNYty9c5fgxcv7p9t0drfX1yLXgdL1K4csvy16wMc7SCEl7pzTnRz3ThIX/52ulW1Sy9fb077ChybYZKx0NnBxsRAKyUVm52Kmc0PdoilhqBViPy8XeiolM+4gLmRb0OhKC+4ZaR9TRRdxjkPVuc4uLn5y5lqS06bg/bNxnqL6aPJttdqv6/BLUX7DEomEIXUwXgriRqxvq5yAmL106ISkYpb2TEQUkfTnTR5EVBR1eB0yU54e+8SzCyOg17dTLXAOBllUZRsoH3LLkH9b4HVu0belOyNkDNQaBt0k3bb3eSBsb4dOoB4mNQmSG0FOrxGAkgACSABJKBNIGePCm1oDQkIFOSYh3455qHVpm13yjN/KtOsyqK2d0orpkrmcI8egNuXuxxrtJqsvT9IPOPZdHOlWvvq9ks/i6ptygbc57pYSprrJ+AVvXC30l9ttjaN+IkS3czudbONgHgTwkst6qgATe1b8Y4EE/OBBdgfVtW0cAN+35tvdUS9aBVV0++D4IKkf6q+wD8od6q4wXr6waB2c61nciMb82Cubn/XVis5dF+9/fyLjJbySFnbZyJ9A8QXKTdDVaky5qE4gaSFhMRKr91EuXrA4yqKGf9wvdVkaZm4Apdwdj9fcV6tT0poXwg3LnW+76vulTC0go1enxwcXYRAj4P2NVGu9uUQif7gmUQ0miRx89lzHgxu5Z9V/ZLdnT/D0k4y2OuWyrDSeRmqp0X9UKluuTtWpYaJPJOMJzOcoDz311Y/B3OLgB1zZreO6mdRlazr9zVRZZagbjZV82EXXh6IPBOLxFJJX5+drmhfDPJs4i54fROKg+eXu5xtzYX+qCaT1pBjAiSABJAAEnjZBHRsKFXV8v1WvddNiPqG7BYdu1Om+VMmU16X9PvCTvlYRD4XK7zupcGoVbUT16cosslYVDoRVj7nQbdfulnU7XnYrNCSku6u9QgICT6Tkva9M+djLWSvFISuggs0sNCRc4vm6tUoytIweEhkAJe6u0vC6AgJ3xCJ99Uqylw7BhvrRIGJ34XCYen3duuTVaEHimsxN82SKI3AbJvaL6tbu2qvm/XzEQunDCSisaS0MVGI73hqZJci5eiBgGchvt6vHfBQEO+raGqWTNbZH13shuZVtIytHx755nrh+LNsnDF/Pk0ONijOq/VJae1roui2Jtj01tZUtMUtW6KrYXT9KJhgeAFOJE5Erk93Pkv46Lp3E5tHgTjDCTzLxO9u/DuTjdJCx+BWvqFGJbdPyiUz8dvjmSZruX5fQEnXto2vH97G0pwAZ6QFz38OK6jVjOySs81+erIbMI2yqJ4cA+2rX6mqhALtS5tr+qf2bmIZXuCZ2M2Gp9b6qmNm7zqSZHlB4FLR693FwRqdtV3uccILJIAEkAASQAJ5AnSdhg0FJVHbNrHpD6dYMI1XvoUBN9mxo213VMZL3/wpkymvDbQv3Tq0dXIZjqfJ4aHx4OnadF9VbsOWo21g9fg2AXaRY5Lh2/Odb/1EFtMmvX7pZVG3J88nr0Py/ji9u8VSElLamvoWD67jcOBq+GL7S1eN5KIyv50kAbzab/+1i6pqHyT95bhMPHD0fahFOidBs6isp5b473L/4fxf7VlHHnSnuBZz8xw4T/nLrw05wSp3XKf2N90Lp4kMOePMWuX9/us0EEmxPM8x8ZD/17feBkU4h6V5HA7nVToZ5cJznI39vu4vJIZV83u+aodA7GuvJfSG7FG0b1Efcp3BCySABJAAEkACSAAJIAEgYK2eBhnIX83WKMSonkQz/PwRi6JfebbIka5r7UVhGIZteK7yD7Xvcx25v3I6YqeQABJAAkgACfy1BOi2KYip5M4mFa+aH7YqeMSiKFvj9xAcnrDyXjcm4WGNfKq5UPui9kUCSAAJIAEkgASQwB8nkA1IYE+Lv/PsvnL/EYsyUTZb++DI3Mz7om9iu2+rnkt61L5/fK4/l6mA7UQCSAAJIAEkgASQwF9PALUval8kgASQABJAAkgACSCBl0IAte9LGem/fhmHHUQCSAAJIAEkgASQQEkCqH1R+yIBJIAEkAASQAJIAAm8FAJlad/GBtv+tKuxQX3i8VPdvldS72MCJIAEkAASQAJIAAkggZdJoCztW+q7LV7KQuFlThHsNRJAAkgACSABJIAE/hoCqH1RuCMBJIAEkAASQAJIAAm8FAKofV/KSP81yzXsCBJAAkgACSABJIAEHkwAtS9qXySABJAAEkACSAAJIIGXQgC170sZ6QcvjzAjEkACSAAJIAEkgAT+GgL/ofa1v23qHxwcG6ili+SmwS08TQIJIAEkgASQABJ4WQRc7i6vd/Rr11vrX6O3sCNPh8B/p30rOpZCgiiyux57ofY1uPU4pOydE6fxdOxkvN3xsALNNrezuc3pKGz5w0rDXEgACSABJIAEXgqBB5hgq+dnUhCF5Gqf/e+lZKv/dsuLInsyVmX5TXXxiEX9ZkueR/bS2rfSQg/22PenXYM99srfGB4DgWtw61Emvblh6owXRZE7nWg0P2Dp7BjyZUSRD31rxxOOn8e0fpRpg4UgASSABJDA7xN4iAl+TtrXau2c2o3wInc44FSYSLq+a27nIsqwbCp0vjXaWV0oP+iOuSBI34PPdfItnaIk3WKp7foZYEVRTG91WxUVUbRJVZTD2Tu1chyIMRyXSYbOd6Y8bytVysewFlXKXC06WUr2EUor2R7aZNA1ijZZ6gd84XgGZJwocEwycu3/NTvcTsuK9PXH3YwIIm2+U+nfrOn3JQVR5C+m3HLK3GQuoX2dbuvKqHN/2iX9row6ne4HvoAwELgGt3IN/b0Ld+PIwvf5kQblvNQe4NxIKy6qPu2wqH0VQMpHhymRABJAAkjgpRO4vwl+Jtr3n/rekbWLOFFlau3rfLcc5ECrsYwk2pizr80q91ll5zK8DGcOBtxgXvWLkoxvVdPcBQPqT0P7Kot61bkEilpRs8heTTRnlVupWjQMvX6W0n00UbRxe4i0M+oaJLA0fb2ALgksk0wxrCBRYG+X3r+BJ8vqnrqURoA5+uKQZW5F6/y1xCG6+q4o1NZI+1ZaaKXwzcnfIu+vo3XWfx1JZXieyySDp1tfuuT1jb313xV/IMHybCoYiIIwz8U8GNzK/TNBtw5t+S/D8RQLRccC/tWJXrvUB0tj78L24fVdIsPxHBMLbHmqrSZLdfPXtcNAIsOxqbuLzTmvS1obFTxFlpqWsY2jUJLl2OTd+caUXCbU63o7srx3E0tzPJeOnq8PwZsISftKtEVRuFtqgTbY7L1z25fRFMez6UT4eueTPLd+T6ZrzDwsEAkgASSABJDAoxLQMnagM3TMqKbJo1sHN48vgrEUywt8Jnq9Nzcxu+IPxokNPtkcb6oiFk1pgunWwY3j80AklgLjnY5cbc/2O4qkiUnKInLRQAA8p+nI2fZkq+R6U3mjrK6JC04UubNJV1b0aPXLIIumlsiJEOMLS8PnU/DD8iwLMlfh9zXXjR2xoihE1rw1Zlvz6ElGFIX4hvd1vkBH+2pUEMXU7pAFsOsWJQ261bsZ5kWOYbT8vuqiqJru+bVxT9MbC11R82k7IUDLRmuhnFK1aEww/SwGfXzTvXASZ+IXi+0wAfTbQ2gYdo3Mn6z2FYKLnRUUbXY0eTbvQAAzux4o39a2AiThhw/Nd0iuX3ffL+g5/LD7H4oCVo20r/RVxjmnb+6i6MuNbc2LoXQyGgqFImmizZO+PvCw1vRtx6BugU0lkowky7Pa1+CWQvxlZ7/IpePRhLR04kNrXpqi5QcjWzYbX++wVjUv3MC0EHkmmSYrAz6y/dFmkRNnI4cgGahwLhUO3iVhwrKXc+3kjYCjYSa7ruLSiXiajW96/6Fy2pdLRkKBYOj2eOYtTZvcwztpqCsZvjq7CsaShx/J0k1j6uTnuqJr+CESQAJIAAkggf8NAR1jR+mbUU2Tl7fRiVgKrCn54VKJNPlDuFvtBRuq1L65LEwimpB0QcY/VhSOKCcTeTYZT2WIikn7x0DgGghZSqdfBlnkiiSdQrTEPSy11TM7P+6t6/kOcbsK7fuGvIUXYj/fEQec9fMxJ4pCeKk5p/LtntW4IAqpzX9dWXWrU5SJos11I7sJQUj5v35eBVdxQcxDUVF5HeIc2EgIopBY81SVrCWfSz0n799H21sSxyzyobl3Kle3qag9JbomtUStfU0UXenZBv3FnY/CVkhHnw/WGclYnBWF5M4QTdHmhqlTVhTiUdCg2WSqYTXSvr3vIMy3+Lf3XVHsucVqsjio6npn86eNmCAK8aX3dnP9xAmMdmzzY10FRb/qWQWhTrSvwS0VfeUDQzmqvxyQBczFWKNV9SxRdIXNUVE9ugcrq+TeaFMlZbV61mGK8LfTLTZV4urRfQjevZ1rh6nwpnctLIjZCeoe3oU3Cox/poOCFaT9tZ0Mm+qxyeKraCHudP5ivJksMmibHK+j4qvqjno+4S0kgASQABJAAv8DAnrGTt+Maps8pY22dcyCABSCP7oqKUfjAvzBhxYbaS3tm3VFubtBMYjcyVjuVXWWRrbk1Ia3ykRZ6b61IDHoM602I+2r1y+VEVe7ipVdkLTE/S11RRvpbV77Wl2T4I3mr2driTe60rOVEkUx8+u9HKf7xgsOWSGx1a12SRYVRaJd95OCEP81VF8pnRmg1r56RZnsLUN7IMjSp5M1Oc1NeqdRS6leF2Ux6qO5zju1ubP27YNTWW9xeyz1A4Zdy04Gpfa12Kn6ni/7cVgNpX29DuAz7AfX/+m3yfW4IHKXY03OtuU7QcwcTUxu62zWMtK+5fp9LbWd84dBJutdJss+ZsNrr+zfTIKS9PXaQA4qg3oNbqn+FVBPSpONbPwU2V8fq1RyloxZZR8sb8TMTp90jgTdtQBam9sfqVYmzibLLk/l/3FHH920XMKuRz0X1U+aLG1tnTOSl5lLXO0tDXbUVpSaOqquYWIkgASQABJAAv8LAnrGTv5cy4xqmjyVjbZ3b6VFUUis91fKnjkhsdFpNdC+tOQQ5W8X4G2qEoWqZNpk7V0CtcP6Bp1qi6wSsnL7jY24KotSHqgaoGxMqWtNXQjSX1f7uvt9KVEUomv94BdX/BYVRdMftqOCkDr47LDIOkqlfXWKcnZPnsBOL+Z6ubNom1ZxLco2aF4XZQHta9hHVb9MWu0p1TW5BDneV1Zs0v8zl/OdQM/SOgmBvdzeSG3jQoAXhTvf+n5KEBJb7919MG20Tgsx0r5lxvu+9mxB4czV6sSwZ3DGB3EXsvYFMZqdhYXaV+eWCrrB7C+4ReWU605/Vvt2f9fUvpIi50O+xYWZefl3brjBToMiJ+o5W0JuOjrIXjchPK8+58Hsav8w7zuLSXEW0bUP1arG57LjBRJAAkgACSCBJ0NAz9jJ2lHLjFK0hslTGWJ75zqY0OSGF7Qv8UYJyc0uQ+1LfToA/2jge4Ox9lV6vuxD5BV3ZLHLZqJUQlavXyb9LH9G+9JvBsl7aHmXlXXkSBXz4B7eYUD6/uhRnksAUq9IYjq9e0RjqHWfyPk/1RBpqFmUq3f+GiqI+2dbtLb4F9Uiq0z9KVqcpUQflUVpt6dU13Il5LSvwLEZJhkLnR1sTAy0UlICWhJ7mc0PdghBhpBWiEe9XeiolI+/AIdprjRyYaR9TRRdxjkPVuf4Gczdy5lqS06Ag/bNxkGL6aPJttdqv6/BLVX7ss9Vat3jMFFWS+9P2L3I38JbD9UjR4athgQz5GIe+uWYB3Vic934MUSGpI6mO2nysFVUNThdsAUyd+tgvJUEpFtfVznBm2v1rpHXFXsj5CAS2gYf0m67m8xa69uhA4g8SW3CA69qP/6JBJAAEkACSOCJEdA1dgZmVNPkqQzxn9O+DvfoAbh9uUsS8dj7gwRKnE03V6q1r26/rLpZNLTE/QerWBea6yfgPbxwt9JfbbY2jfiJEt3M7nWzjYBCE8JLLXIIRE45FBXl7F6+vLq5yf6GyB4lIRW+Wutzgd7QKqqm3wfxFEn/VH3R1ylIFRXVUlq6FGcx6KO51jO5kYt50GtPia7lmMjnPGT3uuU/l0ZKUmhCYqXXbqJcPeCMFcWMf7jearK0TFyRQGxpq59iZEtoX4gpLnW+76vulTBUxUavTw6OLkIgukH7mihX+3KIBLzzTCIaTZLtZ9m9bga3FGMgPVdk91osmiBRFULq+CtEu6seOSlLVcv3W/VeNyHqG7IXJnZ3rEqtgj1x8WSGE3Ln/ro7f4alCH3Y65bKsIEFshit+bCbgi7yTCwSSyV9fXa6on0xyLOJu+D1TSgOtXKXs60Y8ls4KRVTDW8hASSABJDA0yCgZ+x0zai2yVMZ4j+gfWE3eyyS3RLHh9fJTneqqn01QoIs2WQsKh37Kp/zoNsv3SyqLijkx32MV7EuNFHurvUI7PDnMylp4x9zPtZC9kpBfCocmxpY6CgOldQqKt+q7PvzXMyDVlHm2jHYWCcKTPwuFA5Lv7dbn6yKHhXXYm6aJREMgdk29e40OVdxFv0+qva6ldOefFhsrmtyvfC8KON9lZ9L11mnfnSxG1pe0TK2fnjkm+uF488sDaPEN3s+3VQgz0prXxNFtzXBpre2pqItbtlGuBpG14+CCYYX4NjhROT6dOezhI+uezexeRSIM5zAs0z87sa/M9koLXQMbuX6ltW+0iknHEdOOWkhax0t7QvHI7dNbPrDKRYOKLvyLQy4SahxYWK6tm18/fA2luYESBg8/zksc6Hr2iflBjPx2+OZJtJac03/1N5NLMMLPBO72fDUWl91zOxdR5IsLwhcKnq9uzhYo7PAehr/0uUfHmwPEkACSAAJvHQCOsZOz4xqmzyVcHxU7QsnnJ5chuNpcnpaPHi6Nt1XlYuLcLQNrB7fJsAkc0wyfHu+860fDoCCV7LaRtykl0XVhQcaSi1dSJtsTX2LB9fxDMelwxfbX7pqJPllfjsJxwDwt9OtGipTuyhZFBVoX82iKt6RQyfUMRKc/yv4AXPlFG7Oo83Nc+Ah5S+/Nmh/h4N2w3T6+KZ74TSRkc44K6c9v6V93V9I3Izmt4/VDsE6QGOZ8SjaNw80R/ZxLh5jUkIwQ+0YibW5W+jUmGqP01R5SmFpSAAJIAEkgASQABLQImCtnoYvYuCvZmsUYlQrZUll9YhF0a88W/Ad0vG19qIwjAe1rWTj/8cJ/nbtS3dMX8Ti5AxBIV54mMhfOaLYKSSABJAAEkACSOApEqDbpm4gAvVsUn7b/GDH2SMWRdkav4fghISV968e3J5nlfFv175273Ikw/OZ6NXOWDeew/A/Xmk9xX+JntXjigCRABJAAkjg+RLIBgCwp5/rtUMLyu/aIxZlomy29sGRuZn3v92q8tv/v035tLUv6hIkgASQABJAAkgACSABJPB4BFD7oisUCSABJIAEkAASQAJI4KUQQO37Ukb6f/t+AWtHAkgACSABJIAEkMBTIIDaF7UvEkACSAAJIAEkgASQwEshUJb2bWyw7U+7GhvwgLCXMi2ewrIM24AEkAASQAJIAAkggUcnUJb2LfXdFqgIkQASQAJIAAkgASSABJDAMyCA2vcZDNKjr3iwQCSABA17t3UAACAASURBVJAAEkACSAAJvEwCqH1R+yIBJIAEkAASQAJIAAm8FAKofV/KSL/MtR32GgkgASSABJAAEkACSgKofVH7IgEkgASQABJAAkgACbwUAk9G+9rfNvUPDo4N1NIvBb1yCYLXSAAJIAEkgASQgEzA5e7yeke/dr393e/+lQtEaYEE8gSeivat6FgKCaLI7nrs+cYVT1mzze1sbnM6jNIU55I++Z28emX+p5/bOydO4+nYyXi742H1PnsCj/d9hg8DiLmQABJAAkjg3gQeYLysnp9JQRSSq332e1f3bCyFrf7bLS+K7MlYleUhqkZB5hGL+s2WPI/spbVvpYUe7LHvT7sGe+yVvzs8ulDK0r6OIV9GFPnQt/b7nzT8O3mfxoNkbpg640VR5E4nGs0PaNLzJ6B4znUnEqZBAkgACSCBJ0XgIcbrOWlfq7VzajfCi9zhgFNhm+j6rrmdiyjDsqnQ+dZoZ3Wh4aY75oIgfQ8+18m3dIqSLL6ltutngBVFMb3VbVVURNEmVVEOZ+/UynEgxnBcJhk635nyvK1UaQbDWlQpoZY3rZ8XjwLxDMdlEgH/xkhxR6Qsuv0t2R7SF0v9gC8cz4DKEQWOSUau/b9mh9tpWXa+/ribEUEBzncq3X81/b6kIIr8xZRbTlnO5C+hfZ1u68qoc3/aJf2ujDqd7j/yAqIs7Vv1aYd9qPb9nbxFU6Ecsn8gjbtxZOH7/EiD8ukqv21/AwH1015+3zElEkACSAAJ/M8I3N94PRPt+09978jaRZwINrX2db5bDnIg41hG0nPM2ddmlduusnMZXnczBwNuMG36RUmGr6pp7oIBYaihfZVFvepcAkWtqFlkryaas8qtVC2FRtZc/2U/JYDXLRW9S7JwlbkYbyl2xuv217g9eaVkafp6Ae0WWCaZYkhNoiiyt0vv38C8tbqnLiXMzNEXhyxzK1rnr6XORlff3Sdi1kj7VlpopfDNyd9C769KVFldExecKHJnky4LbaJbh7b8l+F4iuV5LhML+Fcneu259tlb/13xBxIsz6aCgSgo+mzMg6N11n8dSWUgUzJ4uvWliyyYpIqksRdF4W6pRSrKUtMytnEUSrIcm7w735hSVJF71O+dV6cNdOvg5vFFMJZieYHPRK/35iZmV/zBeIZjU3cnm+NNVYVTxwiCpbF3Yfvw+i6R4XiOiQW2PNVWk6W6+evaYSBBirzYnPO6pBVewb8FRr12vR1Z3ruJpTmeS0fP14fgfYo2AZu9d277MprieDadCF/vfJKfkPyMzDHECySABJAAEvhLCGiZCYrWNUCUlrEo0yAqjRfdOrhxfB6IxFJg9tKRq+3ZfkdOFeTYSllELhoIgOc0HTnbnmyVXG8GkgOya/XLIIumFc41w/jC0vD5FPywPMuCzFX4fc11Y0esKAqRNW+N2dY8epIRRSG+4X2dL9DRvhoVRDG1O2QB7LpFSbbY6t0M8yLHMFp+X3VRVE33/Nq4p+mNha6o+bSdEKBlo7VQTqlaiuy+tWb6ihdF/maxyU6b6Iahw5QgCrG1/lcU/aZ74STOxC8W26tow/7qtydPgzZlta8QXOysoGizo8mzeQdSm9n1gKyyta0ALvjhQ/MdkuvX3fcLugc/7P6H+0TDGmlf6auMc07f3EXhlxsbzKrs9BW5dDyakNY+fGjNS0OHa/q2Y9BogU0lkoyk57Pa19a8GEono6FQKJIm64Ckr8+ZU29cMhIKBEO3xzNv4YGpal64Ad3MpcLBuyRMQPZyrl3t4X9AXp025HuUiKWgMvLDpRJp8odwt9r7j3I4KdqUz1IEQb4lMWDj6x1W6A5MbpFnkmmy9OEj2x9tFrmcbPyTQa8dDTPZ1SGXTsTTbHzTC03Kal81PffwThrqSoavzq6CseThR7IALXoAigR9QR/xTySABJAAEng2BHTMBLGn2gZI01jIJoxLGxpEKZlkvHJZmEQ0IVn+jH+sKJBPTibybDKeyhCBk/aPgU/NQHJQOv0yyCJXpLDC97B3Vs/s/Li3ruc7xO0qtO8b8oJeiP18R1xX1s/HnCgK4aXmnMq3e1bjgiikNv91ZdWtTlEmijbXjewmBCHl//p5FVzFBTEPRUXlLbhzYCMhiEJizVNVspZ8rvw0tjV9D0FYhv8rcbVa7V/8nCjylzM1FttbEqws8qG5d7bS/ZXKLGpPvlK19jVRdKVnG+QJdz4K+x0dfT5YTCRjcVYUkjtDNEWbG6ZOWVGIR0FKZpOVO3ZG2rf3HYT5Fv/2vlO7u0vOqqxcc1R/OSArkIuxRqu5fuIE5kJs82NdBUW/6lkFhZ/b62axmiwOqrre2fxpIyaIQnzpvV094+UeVo/uQxDw7Vw7DO2b3rUwrEqyEy6PVdXI8vJqtkH5DNs6ZmG+C8EfXZWUo3EB/uBDi425yS0NtjILpYKQlcVyOH+FzVFRPboH68Pk3mhTJWW1etZhovO30y02VWKDXruHd+G9COOf6aDgvYD9tZ28Z9EiUNFC3hfwF+PNZBVF2+SoIxlR/hnAT5AAEkACSOCvIKBnJvQNkLaxUFo3A4OoTKa8ptzdYOBF7mQs9xY7a7WzyVIb3ioTZaX71oLEFM602tRKQP2qWa9fKvOnzqJqDw1W+P5Wr6KNmP+89rW6JuEFOH89W0vezld6tlIQLfDrvRyn+8YLDlkhsdWt9lYWFUWbLPUD+0lBiP8aqq+UTgVQa1+9okz2lqE90E/p08katSzRqEWn1//0rIbBA8nFb88Oj08vyRt6Pvi9kabNdd6pzZ21bx+cdOn+wrDqtwfuKrWvxU7V93zZj8OSJ+3rdQCEYVDd3Om3yfW4IHKXY03OtuU7QcwcTUxu338nmJH2fTS/r6ztTDayc1Nkf32squzfTIJC8/Xa4J8SVbyvpbZz/jDIZD3ZxLHKbHi1tW9lH6xqCn+4o0L/pWrqZ//xMsqr1wbVc2Lv3kqLopBY76+U1yhCYqNTntzqZ1jer6qAoJKzZOZlm5TZ6ZPOu6C7FmBNwO2PVCsTG7RcLmHXo36i1P9eyP982zpnJC8zl7jaWxrsqH3AY5/tps6Tg3eRABJAAkjgSRHQMxPy51oGSNNYlGkQlcmU1xQtOUT52wXyFlc2TLn3pTnxYO1dAiHE+gadalumErJy+43NnyqL0rA+eIyKpCRoQfCF6Wpfd78vJYpCdK2/4EVxUVE0/WE7Kgipg88Oi6yUVNpXpyhn9+QJbAJjrpc7i7ZpFdei33dHzcfFnatIkuX5TCyaJEL4nAS15o1+yf7SJsP2QO1yvK9azmUu5zsBkaV1EgJ7ub2R2saFAC8Kd771/ZQgJLbeu/tgbuSmSr5ViulU9KGR9i033tc+RFzRkcUum4kynFWK6QvaVxDFTHaOKrXva88WdIS5Wp0Y9gzO+CDGg2hfB9nrJoTnFec8ZDU0H/ItLszMy79zww0FZ6XdM69uG1TPrb1zHTqR3PCC9iUqXEhudhlrXwWE4qdOfnR3+rPat/u7pvaVVg5avZbByiXkhlyLALxMcbV/mPedxaTXXNG1D9X6z4DRTMJcSAAJIAEk8CwI6JkJIwOkaSzKNIjKZMpriqY+HYB/NPC9Qe2YLDSOSp+RvuTQ65dJP0thRTmLeZ+LYin5ZpC8wZU3YFlHjlQxD+7hHQak748e5ZEFYGGLinJ694h1VktCkfN/qiEWWbMoV+/8NVQQ98+2aG2OL6qlPOPu6P0BgkQIL/cUhJWW6G+p9sBTk9O+AsdmmGQsdHawMTHQSkkDQUtaKLP5wQ6xxRDnCuGatwsdlfIZF78+ZuM6ynkGjbSviaLLOufB2vuDvLU4m26u1Na+qXWPw0RZLb0/YfshfzvTastGRovpo8m21yq/r9U5fiYFlFRbcmKfaF+rd428NtgbIQeC0DYIiK4bP4YgkNTRdCdNHp6Kqganq+gwivvlNWiD8tDBe2lfDQgaT10NCeHIxTz0yzEPraqYB4Ne524djLeSsHrr6yoneHO1CJhot91Nnj3r26EDCK1JbYKOL2fqYBokgASQABJ4jgR0zYSBAdI0Fiohq28QlcmU1+VqX4d79ADcvtzlWKPVpC85dPuln0XDCt/fAhZLSXP9BLyiF+5W+qvN1qYRP1Gim9m9brYREG9CeKmlwFOmpX27ly+vbm6yvyGyp0lIha/W+lxgqbWKqun3QTxF0j9VX+AElLtW3OBS09hmaR6Y9ZMghMzFGDmwwlzrmdyQYh5ow/6Wbg/Urox5kNuZb5UkYITESq/dRLl6wEEqihn/cL3VZGmZgP148n6+4rxan5TQvhBuXPp836r21QiJO2CTsah0PFv2nAdplpONW7FogkQxCKnjrxCuTrnal0NkfxjPJKJR6ewMEu/7qnslDMWx0euTg6OLEAh8on2pmg+75LANnolFYqmkjwQGuDtWpXJgd1g8meEEzRNw75dXtw2q51b/UVeyNoCgKk1SnFUt32/VWw2EqG/IXrjXzaDX7s6fYWnjHex1S2XYwAJZUmsQqGhfDPJs4i54fROKQ63c5WwrhvzmnzflOOI1EkACSOAvIaBnJnQNkLaxUJkwfYOoTKa8Lql9YS98LJLdEseH16WN8vqSg9LtVwmVcs835gU2QktKurvWIxAfwGdS0k545nxMOhoMQlfhuNbAQkdxkKFWUXlvVPYNeS7mQasoc+0YbKwTBSZ+FwqHpd/brU9WxdQtrsXcNEuiNAKzbaqD2EyWun9/haIp+cyxTHBtsJE0W7XXzUTp9rec9pTWvlnPfXSxG5pX0TK2fnjkm+uF488sDaPEX3o+3VS+eimtfU0U3dYEm97amtRb3BQcTY62gdXj20SGF3iOSYZvz3e+9cNhDtIszx5TwnHkmJIWsliBrtJ17yY2jwJxhhN4lonf3fh3JhthGeRqGF0/CiYYXoAjjhOR69Odz2Q8zDX9U3s3MaiHid1seGqJf5eubRtfP7yNpTkBzvQKnv8c1kBwz7w6bVA9t/qPuhKOAQRVafL8ttS2TWz6wykWOnPlWxhwk5DowuWpQa/puvZJGSwTvz2eaSKLy2ICrzpm9q4hjkcQuFT0endxsEZnmVjwqOOfSAAJIAEk8IwJ6JgJk44B0jYWKhOmbxCVyZTXBtoXDkg9uQzH0+Q40XjwdG26ryoXF6EnOYiu0DR/JVTK42tf2mRr6ls8uIbvhEiHL7a/dNVIysz8dhI2+vO3061qlUlkQ7EqVc6xAu2rWVTFO3LohDpGgvN/BQ+arEyKazE3z5HDzC6/NhS8NncPHLAckwhd+zd/jHXU54M03nQvnCYy0hlnULJOf8tpD2Q39vu6v5DgGM2vNqsdArGvvZbIdbng4pG0rwy0oPRCuaaX7O/+XP2oFyIqu+/m2jESMXS30KnxwDy4WMyIBJAAEkACSAAJ/CcErNXT8B0N/NVsjUKMPqjqRyyKfuXZgu+Qjq+1F4VhPKhteZ39NLOj9v3zI/T72pfumL6IxclJiEK88EiUpzmxsFVIAAkgASSABJCAigDdNnUDwalnkxpvp1UpS/rFHrEoytYI5/gKdyvvX5Ws969IgNr3OWhfu3c5kuH5TPRqZ6wbz2H480P2Vzzb9/tnFLuMBJAAEkACf5hANgCAPf1cXxBacG+79ohFmSibrX1wZG7m/W+36rnYnT+sff/wNHoulLGdSAAJIAEkgASQABJAAk+BAGrfey+2nsKwYRuQABJAAkgACSABJIAEHkAAtS9qXySABJAAEkACSAAJIIGXQgC170sZ6QcsjDALEkACSAAJIAEkgAT+MgJlad/GBtv+tKuxAY/WQqGMBJAAEkACSAAJIAEk8IwJlKV9S3+3Be5pQwJIAAkgASSABJAAEkACT54Aat9nvHD5y95BYHeQABJAAkgACSABJPCnCaD2Re2LBJAAEkACSAAJIAEk8FIIoPZ9KSP9p1dRWD4SQAJIAAkgASSABJ4+AdS+qH2RABJAAkgACSABJIAEXgqB/1D72t829Q8Ojg3U0kVwDW4pI6bLTKbMgtdIAAkgASSABJDAMyPgcnd5vaNfu97+7nf/Pn0fJLbwvyfw32nfio6lkCCK7K7HXqh9DW4piZSZTJnliVybbW5nc5vTUdhxzeZpJLZ3TpzG07GT8XaHZhb8EAkgASSABJDAEyXwABNm9fxMCqKQXO2zP9FOPcJawlb/7ZYXRfZkrMpSljzQR/GIRf1mS55H9tLat9JCD/bY96ddgz32yt8YHgPlanBLOdJlJlNmeRLXjiFfRhT50Lf2Mg5I1kpsbpg640VR5E4nGs2P8Lw9j6n5JMYOaSMBJIAEkMDvEXiICXtO2tdq7ZzajfAidzjgVJhXur5rbuciyrBsKnS+NdpZXWi+6Y65IEjfg8918i2doiT+ltqunwFWFMX0VrdVURFFm1RFOZy9UyvHgRjDcZlk6HxnyvO2UjWChrWoUpJaXJ2ffvpvExmOy8Ruj358bqeK00AbSvXXoP0UbbLUD/jC8QxoHVHgmGTk2v9rdridlmXn64+7GRGk1Hyn0glY0+9LCqLIX0y55ZTliIcS2tfptq6MOvenXdLvyqjT6X7gCwgD5WpwS9mHMpMpszyJ66pPO2zZ2lc7sbtxZOH7/EiD8rnSnHz4IRJAAkgACSCBp0Xg/ibsmWjff+p7R9Yu4kSwqbWv891ykAMZxzKSnmPOvjar/F+VncvwMpw5GHCDxNQvSpK5VU1zFwwIQw3tqyzqVecSKGpFzSJ7NdGcVW6lalFLapCkTZ9PoVo+HbkOxEB9CqmdTzmxnktfsr9G7QepZmn6egHtFlgmmWJYQeoqe7v0/g1MZqt76lLCzBx9ccgyt6J1/lrqbHT1XXE8rf5TYKR9Ky20Uvjm5G+R99fROuu/jqQyPM9lksHTrS9d8vrG3vrvij+QYHk2FQxEgVou5sHglrK5Bsks1c1f1w4DiQzHpu4uNue8rvxKyPV2ZHnvJpbmeC4dPV8fghcKKllpdU1ccKLInU26LLSJbh3cPL4IxlIsL/CZ6PXe3MTsij8YJ0WfbI43VckDbKlpGds4CiVZjk3enW9M9dol3HTr4MbxeSASS2WgzsjV9my/Q7ol1SuNoygKd0st8LkONM3EBf8K6HXcoA1KpHiNBJAAEkACL52AlpUECaJnWG323rnty2iK49l0Iny986nZWq7pVJqwMu2UlEXkooEAeE7TkbPtyVbJ9WZgymFMtfplkMXS2LuwfXh9lwDTzcQCW57qsh18lobPp+CH5VkWZK7C72uuGztiRVGIrHlrzLbm0ZOMKArxDe/r/KxztK9GBVFM7Q5ZALtuUZILz+rdDPMixzBafl91UVRN9/zauKfpjYWuqPm0nRCgZaO1RF+WqKXYXWhunDnnQSqN1ttMVNW7lTtBFDO/Bl5R9JvuhZM4E79YbK+iS/bXsP1EX2W1rxBc7KygaLOjybMJdYnMrgcEmK1tBXDBDx+a75Bcv+6+X9A9+GH3P5QXVir10Uj7Sl9lnHP65i6KvtzY1rwYSiejoVAokiayPenrAw9lTd92DJolsKlEkpEUe1b7GtySVSZMEYNkVc0LNzAJRJ5JpskSgY9sf7TBasDRMJNdHnHpRDzNxje9/1CG2jf7mIlcOhFLwRwmP1wqkSZ/CHervVACBZWCgudS4eBdEu6xl3Pt8DYhVwKTiCakvmb8YyREIStnuWQkFAiGbo9n3oL21YGmmVj5Dwdpg3bHDdqQf96UePEaCSABJIAEXiABHStpYF/cwztpMLjJ8NXZVTCWPPzoVhg+Y9OpNGFl2ik5mcizyXgqQwRO2j8GvioDIfsb1l/SKWx8vSPvRCs9Maye2flxb13Pd4jbVWjfN+QFvRD7+Y6UZv18zImiEF5qljxiFG2ye1bjgiikNv91ZdWtTlEmijbXjewmBCHl//p5FVzFBTEPRUXlJaxzYCMhiEJizVNVspZ8LqVgqB7dB90eWf/4ttJSP7CfEkTuYrrFTNnekmBlkQ/NvbMZ97dE+6Xq1NrXRNGVnm2Ycdz5KOx3dPT5YDGRjMVZUUjuDNEUbW6YOmVFIR4FoZlNVnrIpG4aad/edxDmW/zb+64o9txiNVkcVHW9s/nTRkwQhfjSe7u5fuIERju2+bGugqJf9ayChifa1+CWkr5RsurRPRiP5N5oUyVltXrWYULwt9MtNpN7eBc89Ix/poMCKWx/bScvGgweGOWTaeuYhVksBH90VVKOxgX4gw8tNtK0SZoE/O1cO0yjN71rYUHMTm5lCZS7GyiI3MkYeOZV9SoGRguadmJl4QYdVyYraINyKuM1EkACSAAJvGQCelZS375UtJCXy/zFeDNxudE2CFFVGh0D06lMprw2sFPZZKkNb5WJstJ9a0Fi4mdabWorqX6Fq9cvlRVWZ1G1h66wOSruPzEq2ohQyGtfq2sSXizz17O15O18pWcrJYK/9L0srN94wSErJLa61d7KoqJIIOx+UhDiv4bqK6UzA9TaV68ok71laA8EWfp0sianuUnvNGrR7bWjfuyIeDHZeCzFi0LiaLzWBkrGXOed2txZ+/bBSRv2FxSzUfuzqk+pfS12qr7ny34cljxpX68DIAz74VX96bfJ9bggcpdjTc625TtBzBxNTG6Xv6VK7qaR9i3X72up7Zw/DDJZxzPxmDIbXntl/2YSJKivl2BSRusa3FJqX4NklX2wmBEzO33SqRF01wIoa25/pFq+tetRTymjB0Y1++3dW2lRFBLr/ZXyykNIbHRa6WzJklM491/uKL/8lTelSos8/nYBXLyqp07WvjrQtBMrmif3TqPjqn+GKFrVBnm8lXjxGgkgASSABF4gAdmOFFpJ+XMt+2LrnJFetXKJq72lwY5a0IgK22SidE2nKpkqi76dUiczWXuXQAixvkGn2kqqhKzc/sJ+GWRRte2hhrJISoIWBK+ZrvZ19/tSoihE1/rJK2VZGFB0UVE0/WE7Kgipg88OC53VUSrtq1OUs3vyBDaBMdfLnUXbtIpr0X8KajqXrtOCkLg+Pg6lQedlAkueWnlzntRyo/6War/cdzneN6etyEXmcr4TEFlaJyGwl9sbqW1cCPCicOdb308JQmLrvbsP5oasvvQ7IldERtlI+5YZ7/vaswX1MlerE8OewRkfhGTI2hfkaXYWFmpfnVvKdoP21UkmT/Gd/qz27f6e077ZXPKt3Gy2DxGXeWSxy2aiVA+MevbbO9eh2uSGF7QvEdlCcrPLSme1OB/yLS7MzMu/c8MN9oJ/Amjq0wGs+QLfG2ja5CB73YTwvOKcBz1omomVzTPouDKZiVK3IQcBL5AAEkACSOBlE5Bta6GVNLIvFG12tX+Y953FpJi76NqHarXR0TWdqmRqUauylcpBUScz2ciRZyL762OVSd+U6/XLIIuqbcoG3Oe6WEq+GSRvpuUNWNaRI1XMg3t4hwHp+6NHeWQBiLOiopzePQJcLQlFzv+phog5zaJcvfPXUEHcP9uitUW+qBaVLlTKsFfd8MZeiG50VUEseNviDWgbya+nQKTf31LtzxWS074Cx2aYZCx0drAxMdCaPVOCljReZvODHWKLIfYUInBuFzoq5TMuYG7kSit1YaR9TRRdxjkPVuf4GbC4nKm25LQ5aN9s7LOYPppse03J6xUp5kEKA9e6pWy6QQmmGikGRY556JdjHlpt5rrxYwgLSR2Mt5K4cuvrKidZofb+IJEIZ9PNlQ/SvrmSj6Y7afIGoaKqwekicfHqB1X1PFu9a+Rtx94I2RpJ2yooXWgmjcRqYa3f8YJnWNWGUvNAiR2vkQASQAJI4C8mkLNlhVbSwL7QbrubCDXr26EDiMNMbXorVYbvz2lfh3v0ANy+3OVYo9Vk1TXluv3Sz1JgNx826MVS0lw/Aa/ohbuV/mqztWnET5ToZnavm20ExJsQXmqRQyBy9RYV5exevry6ucn+hsg+IyEVvlrrc4Fg1Sqqpt8H8RRJ/1R90dcpSBUV1aKrfemRQ6LaV9qgKKvt0z68Fo+stNG0udYzuSHFPND6/S3R/lzH5XMesnvd8p9L6kWSRkJipdduolw94HEVxYx/uN5qsrRMXJFoa2k/X3lqp4T2hXDjUuf7vupeCUMr2Oj1ycHRRQj0OGhfE+VqXw6RvWI8k4hGk2RDWnavm8Et5RgYJKtq+X6r3vIlRH1DdoitcXf+DEt71GCvWyrDBhbA/0pVta9GSGQGm4xFpWPksuc8lPkAU+6OValHsMMunsxwgnzmrqqEAp9rzYfdFNTLM7FILJX09dlpfWgaidUPp37HjdqgpIrXSAAJIAEk8JIJ6FpJPcNa0b4Y5NnEXfD6JhQH08tdzraaVUbnD2hf2Ckfi2S3j/PhdS8NykbflP+u9X/glNCSku6u9Qjs8OczKWnPPHM+1kL2SkHoKpx7GljoKI4t1ioq36rCmAetosy1Y7CxThSY+F0oHJZ+b7c+WRWisLgWc9MsidIIzLapDmIz133egxfhIhsPXl6Hk6RLweX3/6j3upko/f4q69WKV87KXGW8ryJL9m7W2R9d7IbmVbSMrR8e+eZ64fgzS8MoccCeTzepIzHy3AqVNEWX1r4mim5rgk1vbU1FW9yy7XM1jK4fBRMML8CJxInI9enOZwkfXfduYvMoEGc4gWeZ+N2Nf2eyUVroGNxSdtsgmaW2bWLTH06xcI7ZlW9hwE0Ci6GTdF37pFwvE789nmmSKnW0Dawe3yYyvMBzTDJ8e77zrR+epTIfYCi5tm18/fA2luYEqDZ4/nOY4FaVUKB9aXNN/9TeTQyqZWI3G55aq4nShaaRWF24Sa/j6mTo9y2e7vgJEkACSAAJAAE9K6ljX151zOxdR5IsLwhcKnq9uzhYUxjs96jal24d2jq5DMfT5ODRePB0bbqvKrdhS8+UG/RLL4vabj5sbhRLSSjH1tS3eHAdz3BcOnyx/aWrg9KbggAAET9JREFURlJm5reTcAwAfzvdqlKZUtXaRcmiqED7ahZV8Y4cOqGOkeD8X4lnMCsHi2sxN8+B85S//NpQeMTbm9aR74e3MYYXeDYRvtia8zqJoHrTvXCayEhnnBn0V4m0oP3KWyX8vu4vJJBU8zvCaodA7GuvJVRVyBhNj6R9jcS1XsX4ORJAAkgACSABJIAEXhIBa/U0fEcDfzVbQ46A+I2+P2JR9CvPFnyHdHytvSgM4zda+HTF4aP4fZ9u9/7KMcNOIQEkgASQABJAAs+PAN02dUO+K2LyHi/otbv5iEVRtsbvITg8YeX9K4VzVLvevyIBal8U7kgACSABJIAEkAAS+OMEsgEJ7Onn+sLQgvsKzUcsykTZbO2DI3Mz73+7Vfftxf8qPWrfPz7X/1dDi/UiASSABJAAEkACSAAJFBBA7YvaFwkgASSABJAAEkACSOClEEDt+1JGumDRg38iASSABJAAEkACSOAFEkDti9oXCSABJIAEkAASQAJI4KUQKEv7NjbY9qddjQ0aZ9G9wOUCdhkJIAEkgASQABJAAkjgmRIoS/uW+m6Ll7JQeKZjjM1GAkgACSABJIAEkAASkAig9kXhjgSQABJAAkgACSABJPBSCKD2fSkjjas9JIAEkAASQAJIAAkgAdS+qH2RABJAAkgACSABJIAEXgoB1L4vZaRxnYcEkAASQAJIAAkgASTw3LSvpabx49ex+YUPzXjoBKp2JIAEkAASQAJ/JQGXu8vrHf3a9fZ3v/sXdR4SKCbwGNrX3jlxGk/HTsbbHcUV5D9RJzPb3M7mNqdD8dCqE+QzUoo0Vs/PpCAKydU+u3YCZeL/+Frdfo0O/sftweqQABJAAkgACfzPCaiNY1m2+ynb+kfjaav/dsuLInsyVmVR6JyHlP+IRf1mS55H9tLat9JCD/bY96ddgz32Sq3hMTdMnfGiKHKnE41m/TFTJXMM+TKiyIe+tefdt6oEeuU84edB1X6tDpb1wOt1HD9HAkgACSABJPAMCaiMY5ntf8K2vsiUW62dU7sRXuQOB5wK5UfXd83tXEQZlk2FzrdGO6sLBRLdMRcE6XvwuU6+pVOUBM1S2/UzwIqimN7qtioqomiTqiiHs3dq5TgQYzgukwyd70x53laqsBvWokpJvx7chxrVP0Ls57uCBuRyaTWSHjnilCUI8eX3Re5LS/2ALxzPgJoUBY5JRq79v2aH22lZdr7+uJsRQTfOdyrdrDX9vqQgivzFlFtOWTRAalakqSW0r9NtXRl17k+7pN+VUafTXfwCwt04svB9fqRBOeo5EPkLRbKqTztsofY1UYoE+VzqRj/p50HRfu0Oqvui10f8HAkgASSABJDA30NAYRzL7NSTtvV5U/5Pfe/I2kWcCDa19nW+Ww6C4BNYRtJzzNlXdaxmZedySBBF5mDADQXqFyVVV9U0d8FICrJI+yqLetW5BIpaUbPIXk00Z5VbqVryXZMU5OsPG6FYLJr9TTCkZD6w0EAXpiTpNRtpdU9e8KLIpaKhcBh+QxcznXm/Z1aqWpq+QioAlkwxrCB1lb1dev8G5ozVPXUpYWaOvjhkmVvROn8tdTa6+k67SZrtpI20b6WFVgrfnPwt9P4q5yjdOrhxfB6IxFIZjufSkavt2X6H1CBlMkkaSl0TReFuqYWmTcoElKN11n8dSWV4nsskg6dbX7rImkmVprhLrrcjy3s3sTTUHT1fH8q+R7BUN39dOwwkMhyburvYnPO6pCUL3Tq4eXwRjKVYXuAz0eu9uYnZFX8wTtKdbI43VZEqykymbJtmB8t85jEZEkACSAAJIIE/S+Ce5pKy2Xvnti+jKY5n04nw9c6nZqvpAcbRQCQo+yvZU5GLBgLgOU1HzrYnWyXXm8q1ZHVNXHCiyJ1NurJ6SKtfBlksjb0L24fXdwnQLEwssOWpLnbwFYsN8oml4fMpeEV5lgWZq/D7muvGjlhRFCJr3hqzrXn0JCOKQnzD+zrfR0f7alQQxdTukIWiTfpFSdLQ6t0M8yLHMFp+X3VRVE33/Nq4p+mNha6o+bSdEKBlo7VQTqlasjI030hVx9/0rIKq5m7nu5wmin7TvXASZ+IXi+2SUqJonUbaGhdCvMifTzXJ7m1VsWrtKwQXOyso2uxo8mzegQBmdj1Qvq1tBXDBDx+a75Bcv+6+X9A9+GH3PyhjaHW6kOugkfaVvso45/TNXRR+ubFS82Xnq8gxiWh2hZDxj5FYCGWyrDTkkpFQIBi6PZ55W6h9bc2LoXQyGgqFImmyFEj6+pwF+rgAn6NhJrsq4tKJeJqNb3r/gf5XNS/cEKc9zyTTZDHBR7Y/2ixyaaLIpROxVM4lz6USafKHcLfaCyXkOlVOMikWWbODpQYjNyp4gQSQABJAAkjgjxG4v7l0D++kQXckw1dnV8FY8vCj+0HGMWdPi0WC0kTKyUSeTcZTGSJw0v4xELgGQpbS6ZdBFrkigU0lkgwbX+/Qe5uvbJ58bfXMzo9763q+Q9yuQvu+IS/oc7EB1s/HnCgK4aXmnG/S7lmNC6KQ2vzXJY2yXlEmijbXjewmBCHl//p5FVzFBX7foqLy08Y5sJEQRCGx5qkqWUs+l9w71Sd029Q16cRqL1HwtrckWFnkQ3PvwImr30h710ZKFPnL5cH2jla7XWdpkfX7ZrWviaIrPdsw47jzUdjv6OjzwWIiGYuzopDcGaIp2twwdcqKQjwaA3kvJSuQhbp/Gmnf3ncQ5lv82/tOHaghTR1J8ymvKXf3BmnSyRg4qJW3VBNRbpwyASxQrCaLg6qudzZ/gmKE+NJ7u6qQguFxD+/C+wDGP9NBwfrP/tpOnOrVo3uw4krujTZVUlarZx2mDn873WJTlWbrmIXJKwR/dFVSjsYF+IMPLTYWiPIyk2l2sKDB+CcSQAJIAAkggf+ewP3NZUULebnMX4w3E5cbbQMfntJql2kclVkKRIKSQzZZasNbZaKsdN9akBjumVabkfbV65fKIqtdxar20BU2R4WyGeVdV7QRxZDXvlbXJHij+evZWuKNrvRspURRzPx6LwvrN15wyAqJrW61t7KoKNpkqR/YTwpC/NdQfWXHUrH21SvKZG8Z2gPxlD6drMlpbtIjjVpK9dTyL7hYhdTBQG1WvJrrvFObO2vfPjhp40ZWfzzM+RZFIXO3P9drlYMW8vJaqX0tdqq+58t+HJY8aV+vA8of9oN///Tb5HpcELnLsSZn2/KdIGaOJia3i/aP5YvV6ZeR9n2431c+h0Fa6/C3C4VuXdVE1NK+ltrO+cMgk3VmE482s+E10r6VfbC8ETO7HvVMkj/f6bOTiuiuBfCjc/sj1arnlrJ3b6VFUUis91fKCw4hsdFpVT/eZSbT7KDOGJQcJEyABJAAEkACSOCxCMhm8T7m0tY5I71A5RJXe0uDHbWgEVXCsTwbqspCq0SC0kSqk5msvUsghFjfoNNA++r1yyCLuguyGlG2pIzrIikJ2hfcZ7ra193vS4miEF3rJ2+n8/UWFUXTH7ajgpA6+Oyw0BUa2lenKGf35AlsAmOulzuLtmkV11JialnqPx2D2zW03P1KC4hhI+225s7WHk/v8OSc7wbaJCS3PlYX1ijH+0ohDPJ/M5fznYDI0joJgb3c3kht40KAF4U73/p+ShASW+/dfTA3ZNlZWKxWa03Uo8f7qucr9ekAlj6B7xAWrbzlIHvdhPC84pwHZYLXni3oC3O1OjHsGZzxQZhHKe3bvwlMMzv9ksaVOyw/DPLndPd3He3buQ4FJDe8oH2JkhaSm11F2resZJodlJtU5thgMiSABJAAEkACj06g8gHmkqLNrvYP876zmBRCGF37UOg/Kss4KpUARatEgtJEqpOZbOR4U5H99bHKZB8ib78ji102E6Vy4ur1yyCLUng8mHOxlHwzSN43yxuwrOSgg3zMg3t4hwHp+6NHeWQBKOCiopzePQJcFoPZ/3P+TzVEMWsW5eqdv4YK4v7ZFq1DCIpqyYtvTQjmunGQvvztdGvRHjUYtVKNzI+s2wsv6IX4Wp/66AnalNO+AsdmmGQsdHawMTHQSkl5s8ots/nBDrHUcOIDRODcLnRUymdcwNzIV1SiR0Z+XxNFl3XOg3KOKq8LprXyltW7Rl4A7I2Qoz1om3oF6XCOn4FovpyptuT0vqR9+1bAu8sefsmdCZLtYXZshNTBeCsJRrG+rnJCsTWj+8qYh3455qFVHfNA2ct6bstMptnBskel/PHDlEgACSABJIAE7kXgIeaSdtvdRKhZ3w4dQBxmatNbqTTr5RpH1SH95Wlfh3v0ANy+3OVYo9Vk7f1BoinPppsr1dpXt1/6Wf6Q9jXXT8AreuFupb/abG0a8RPBt5nd62YbAfEmhJda5BCI3PAVqVJn9/Ll1c1N9jeUhOgBIRW+WutzgfjRKqqm3wfhCUn/VL3aFahfSwmlaPtMpK/kx5SVjLnWM7khxTwYNtJa66p3SZEkZtf7+RvgIm1oy7UHLpQxD3IV+QSSphISK712E+XqAe+oKGb8w/VWk6Vl4opEW0v7+Yrzan1SQvtCuLGFbmqw9bXbmxpshSc8SCUqZ7/y2kD7UjUfdlPQdJ6JRWKppA8CEhR5X3WvhOE2G70+OTi6CIHGJ9pX3qUo8smd4Xr1nkF358+wtEcN9rqlMmz2GI6qlu+36r1uQtQ3ZC8IQS7zuS03mVYHtQYgP7R4FwkgASSABJDAf0Hg3uayon0xyLOJu+D1TSgOBpW7nG01K6y2qUzjqMpSyu8rCmwqFpFP1gqve2mAU9W+GiEBkWwyFpVOhJXPedDtl24WdXseZpGLBCttotxd6xHYp89nUtLmeeZ8rIXslYLQVXCiBhY6JEWorFSrqLwwLYx50CrKXDsGG+tEgYnfZc8UC4dvtz5ZFfOquBZz0yyJ0gjMthV7dh09EK4sxNf7FQEPhXvdcr0oaCT5U2DT8Ug0nj1GIH06qj7uDfIaa9+ssz+62A3Nq2gZWz888s31wvFnloZR4iw9nzY8R0LR/RIxD7melLhQTh3ltZH2pc01/VN7N7EML/BM7GbDU2tVal8T5WoYXT8KJhhegFOOE5Hr053PZEheNQ3/8IcSmcRqv3rLHRzvXNc+uXkUiDOcwDPx2+OZJmlRZaltm9j0h1MsHH125VsYcNvIZFK19lH9vpRWB9XoS1DFxEgACSABJIAE/hCBe5rLVx0ze9eRJMsLApeKXu8uDtaoPVaPrH3p1qGtk8twPE1OII0HT9em+6pyG7YcbQOrx7cJEBAckwzfnu986yeyWF8G6GVRyYC8yryXgS6WkpDd1tS3eHAdz3BcOnyx/aWrRvLWmd9OnsB7be34Ae2i5DlQICs1i6p4Rw6dyMZGZP/H+b+Cvy9XTuHmPNrcPAfOU/7ya0PROQyW5nE4Wrfw+8vedC+cJjLKM86k8gsa+U/75ObJ7V0SBiuTvDvf/fFva/Zoi1x74MJY+7q/kAha1Reiydlrh0Dsa68l5DT5vkuflPb76uXEz5EAEkACSAAJIAEkgATKJmCtngYhyV/N1ijEaNnZlRruEYuiX3m2knCe1lp7URjGg9qmbOdTvEbt+xRH5a+catgpJIAEkAASQAIvmgDdNnUDPtSzyXu8oNcm9ohFUbbG7yE4PGHlvSKq4W9WR6h9/+bR1X5g5LceeBcJIAEkgASQABL4zwhkAxLY08/1RaEF9zTNj1iUibLZ2gdH5mbe/3ar/jOSv1kRal/UvkgACSABJIAEkAASQAIvhQBq35cy0r+5SMLsSAAJIAEkgASQABL4Cwig9kXtiwSQABJAAkgACSABJPBSCKD2fSkj/Rcs1LALSAAJIAEkgASQABL4TQL/7/+bKvAXCSABJIAEkAASQAJIAAm8BAL/BwA8wllUOtTtAAAAAElFTkSuQmCC;" parent="1" vertex="1"><mxGeometry x="40" y="40" width="937" height="275" as="geometry"/></mxCell></root></mxGraphModel></diagram></mxfile>